<svg id="svg" version="1.1" xmlns="http://www.w3.org/2000/svg" xmlns:xlink="http://www.w3.org/1999/xlink" width="400" height="400" viewBox="0, 0, 400,400"><g id="svgg"><path id="path0" d="M128.412 43.800 C 128.419 44.020,128.339 114.793,128.235 201.073 C 128.052 352.742,128.070 357.945,128.776 357.892 C 129.177 357.862,129.833 357.199,130.232 356.418 C 130.632 355.638,131.274 354.638,131.660 354.195 C 132.046 353.752,132.630 352.747,132.958 351.963 C 133.286 351.178,133.832 350.305,134.172 350.023 C 134.513 349.740,134.693 349.350,134.572 349.155 C 134.451 348.960,134.522 348.800,134.729 348.800 C 134.937 348.800,135.591 347.808,136.185 346.596 C 136.778 345.384,137.433 344.497,137.641 344.626 C 137.850 344.754,137.994 344.711,137.963 344.530 C 137.749 343.300,138.094 342.301,138.796 342.117 C 139.233 342.003,139.497 341.757,139.382 341.571 C 139.118 341.144,139.958 339.632,140.987 338.682 C 141.658 338.063,141.687 337.900,141.187 337.584 C 140.724 337.291,140.790 337.211,141.500 337.206 C 142.131 337.202,142.400 336.961,142.400 336.400 C 142.400 335.960,142.535 335.599,142.700 335.597 C 142.865 335.595,143.198 335.190,143.440 334.697 C 144.748 332.034,145.768 330.457,146.065 330.640 C 146.249 330.754,146.400 330.477,146.400 330.024 C 146.400 329.571,146.580 329.200,146.800 329.200 C 147.020 329.200,147.200 328.660,147.200 328.000 C 147.200 327.200,147.400 326.800,147.800 326.800 C 148.130 326.800,148.400 326.566,148.400 326.280 C 148.400 325.994,148.625 325.535,148.900 325.260 C 149.175 324.985,149.408 324.544,149.418 324.280 C 149.428 324.016,149.617 323.833,149.837 323.873 C 150.058 323.913,150.660 322.968,151.176 321.773 C 151.692 320.578,152.288 319.600,152.500 319.600 C 152.712 319.600,152.788 319.345,152.668 319.033 C 152.548 318.721,152.697 318.371,152.999 318.256 C 153.301 318.140,153.769 317.630,154.039 317.123 C 154.468 316.318,154.454 316.263,153.932 316.694 C 153.448 317.093,153.333 317.074,153.333 316.594 C 153.333 316.267,153.578 316.000,153.877 316.000 C 154.175 316.000,154.595 315.539,154.809 314.976 C 155.046 314.353,155.380 314.064,155.661 314.238 C 155.935 314.407,156.016 314.349,155.859 314.096 C 155.714 313.861,155.765 313.608,155.973 313.534 C 156.181 313.460,156.419 312.860,156.502 312.200 C 156.597 311.445,156.980 310.853,157.532 310.603 C 158.016 310.384,158.324 309.979,158.218 309.703 C 158.112 309.426,158.219 309.200,158.455 309.200 C 158.692 309.200,158.782 308.930,158.655 308.600 C 158.529 308.270,158.612 308.000,158.841 308.000 C 159.486 308.000,160.466 306.889,159.968 306.723 C 159.721 306.640,159.884 306.147,160.358 305.544 C 160.807 304.974,161.045 304.364,160.887 304.190 C 160.729 304.015,160.924 303.989,161.321 304.132 C 161.717 304.274,161.955 304.251,161.849 304.079 C 161.532 303.566,162.860 301.190,163.309 301.467 C 163.538 301.609,163.605 301.531,163.458 301.294 C 163.312 301.058,163.419 300.625,163.696 300.332 C 163.973 300.040,164.466 299.260,164.792 298.600 C 165.117 297.940,165.814 296.815,166.339 296.100 C 166.865 295.385,167.156 294.800,166.986 294.800 C 166.816 294.800,167.020 294.485,167.439 294.100 C 168.480 293.142,168.457 293.417,168.414 282.691 C 168.392 277.211,168.527 273.231,168.731 273.357 C 168.937 273.485,169.007 267.906,168.898 260.089 C 168.794 252.670,168.775 244.170,168.855 241.200 C 168.935 238.230,168.947 233.010,168.883 229.600 C 168.764 223.303,168.936 221.389,169.584 221.790 C 169.782 221.913,170.065 221.818,170.213 221.579 C 170.360 221.341,170.733 221.242,171.040 221.360 C 171.348 221.478,171.600 221.406,171.600 221.200 C 171.600 220.994,171.870 220.929,172.200 221.055 C 172.530 221.182,172.800 221.078,172.800 220.825 C 172.800 220.572,173.025 220.411,173.300 220.466 C 173.575 220.522,174.220 220.335,174.734 220.052 C 175.248 219.768,175.766 219.633,175.885 219.752 C 176.005 219.871,176.844 219.561,177.751 219.063 C 178.658 218.565,179.985 218.187,180.700 218.222 C 181.490 218.261,182.000 218.095,182.000 217.798 C 182.000 217.487,182.382 217.384,183.059 217.513 C 183.708 217.637,184.023 217.561,183.872 217.316 C 183.556 216.805,185.308 216.000,186.739 216.000 C 187.344 216.000,188.015 215.825,188.229 215.611 C 188.442 215.398,188.973 215.164,189.409 215.092 C 189.844 215.020,190.581 214.751,191.047 214.495 C 191.513 214.238,191.993 214.126,192.113 214.246 C 192.233 214.366,192.775 214.173,193.319 213.816 C 193.862 213.460,194.463 213.205,194.653 213.248 C 195.021 213.332,195.865 213.046,197.765 212.196 C 198.405 211.909,199.200 211.779,199.530 211.905 C 199.921 212.055,200.030 211.973,199.842 211.668 C 199.667 211.384,199.808 211.200,200.200 211.200 C 200.611 211.200,200.738 211.018,200.547 210.700 C 200.343 210.360,200.463 210.376,200.923 210.749 C 201.364 211.107,201.600 211.142,201.600 210.849 C 201.600 210.602,201.949 210.400,202.376 210.400 C 202.803 210.400,203.257 210.231,203.384 210.025 C 203.512 209.819,203.927 209.642,204.308 209.631 C 205.832 209.586,206.400 209.451,206.400 209.133 C 206.400 208.950,206.681 208.800,207.024 208.800 C 207.367 208.800,207.536 208.620,207.400 208.400 C 207.264 208.180,207.433 208.000,207.776 208.000 C 208.205 208.000,208.400 208.382,208.400 209.224 C 208.400 209.897,208.563 210.347,208.762 210.224 C 208.962 210.100,209.067 210.707,208.997 211.580 C 208.919 212.549,209.077 213.332,209.404 213.604 C 209.705 213.853,209.858 214.493,209.753 215.068 C 209.640 215.695,209.802 216.264,210.176 216.544 C 210.510 216.795,210.825 217.585,210.877 218.300 C 210.928 219.015,211.142 219.600,211.352 219.600 C 211.562 219.600,211.634 219.700,211.512 219.821 C 211.391 219.943,211.527 220.826,211.815 221.785 C 212.104 222.743,212.249 223.618,212.137 223.729 C 212.026 223.840,212.123 224.282,212.352 224.711 C 212.582 225.139,212.876 226.095,213.006 226.835 C 213.136 227.574,213.388 228.274,213.566 228.390 C 213.860 228.581,214.246 230.125,214.519 232.200 C 214.576 232.640,214.746 233.195,214.895 233.434 C 215.044 233.673,215.211 234.541,215.267 235.362 C 215.322 236.184,215.510 236.944,215.684 237.052 C 215.858 237.159,216.000 237.755,216.000 238.375 C 216.000 238.995,216.257 239.716,216.572 239.977 C 216.887 240.238,217.074 240.817,216.988 241.264 C 216.902 241.710,217.095 242.478,217.417 242.970 C 217.739 243.462,217.898 243.969,217.769 244.098 C 217.640 244.226,217.712 244.662,217.928 245.066 C 218.145 245.470,218.378 246.521,218.446 247.400 C 218.515 248.280,218.708 249.098,218.875 249.217 C 219.043 249.337,219.236 249.806,219.306 250.259 C 219.375 250.712,219.735 251.546,220.105 252.112 C 220.601 252.868,220.650 253.184,220.290 253.305 C 219.934 253.425,219.917 253.624,220.229 254.035 C 220.465 254.346,220.696 255.218,220.741 255.973 C 220.787 256.729,220.993 257.551,221.200 257.800 C 221.407 258.049,221.619 258.814,221.671 259.499 C 221.723 260.184,221.885 260.671,222.031 260.581 C 222.177 260.490,222.395 261.147,222.515 262.039 C 222.634 262.932,223.005 263.963,223.338 264.331 C 223.775 264.814,223.834 265.197,223.549 265.706 C 223.263 266.216,223.320 266.577,223.753 267.010 C 224.083 267.340,224.284 267.963,224.201 268.396 C 224.117 268.829,224.218 269.288,224.425 269.415 C 224.631 269.543,224.800 270.089,224.800 270.629 C 224.800 271.627,225.475 273.125,226.200 273.738 C 226.433 273.934,226.307 273.981,225.900 273.850 C 225.026 273.569,224.939 274.614,225.809 274.948 C 226.210 275.102,226.356 275.529,226.236 276.191 C 226.135 276.748,226.242 277.200,226.475 277.200 C 226.739 277.200,226.710 277.426,226.400 277.800 C 226.056 278.215,226.041 278.400,226.351 278.400 C 226.609 278.400,226.800 279.090,226.800 280.024 C 226.800 280.917,226.961 281.548,227.158 281.426 C 227.594 281.156,228.000 282.123,228.000 283.433 C 228.000 283.965,228.191 284.400,228.424 284.400 C 228.657 284.400,228.731 284.588,228.589 284.818 C 228.447 285.047,228.577 285.632,228.877 286.118 C 229.177 286.603,229.402 287.667,229.378 288.483 C 229.353 289.298,229.464 289.884,229.625 289.785 C 230.013 289.545,230.299 290.386,230.207 291.500 C 230.167 291.995,230.264 292.400,230.422 292.400 C 230.581 292.400,230.837 293.075,230.991 293.900 C 231.145 294.725,231.442 295.606,231.650 295.858 C 231.858 296.110,231.986 296.470,231.935 296.658 C 231.780 297.226,232.441 300.872,232.824 301.559 C 233.231 302.289,234.125 305.402,234.271 306.600 C 234.325 307.040,234.649 308.390,234.992 309.600 C 235.336 310.810,235.650 312.250,235.691 312.800 C 235.732 313.350,235.920 313.908,236.108 314.039 C 236.296 314.171,236.466 314.839,236.486 315.525 C 236.506 316.263,236.687 316.670,236.928 316.521 C 237.175 316.368,237.235 316.532,237.081 316.934 C 236.940 317.300,237.012 317.600,237.240 317.600 C 237.480 317.600,237.541 317.957,237.384 318.450 C 237.203 319.022,237.259 319.211,237.557 319.026 C 237.839 318.853,238.000 319.141,238.000 319.819 C 238.000 320.619,238.155 320.826,238.621 320.647 C 238.977 320.511,239.137 320.578,238.997 320.805 C 238.863 321.022,238.943 321.200,239.176 321.200 C 239.409 321.200,239.600 321.442,239.600 321.738 C 239.600 322.034,239.960 322.602,240.400 323.000 C 240.840 323.398,241.200 323.961,241.200 324.250 C 241.200 324.539,241.738 325.174,242.395 325.659 C 243.288 326.320,243.546 326.786,243.415 327.507 C 243.285 328.225,243.388 328.413,243.820 328.248 C 244.206 328.100,244.400 328.289,244.400 328.813 C 244.400 329.246,244.580 329.600,244.800 329.600 C 245.020 329.600,245.200 329.870,245.200 330.200 C 245.200 330.530,245.352 330.800,245.539 330.800 C 245.725 330.800,246.073 331.205,246.312 331.700 C 246.551 332.195,246.758 332.364,246.773 332.076 C 246.788 331.788,246.983 331.666,247.207 331.804 C 247.430 331.942,247.509 332.223,247.383 332.428 C 247.256 332.632,247.331 332.800,247.550 332.800 C 247.768 332.800,248.004 333.295,248.073 333.900 C 248.149 334.557,248.413 334.956,248.730 334.890 C 249.021 334.830,249.147 334.962,249.009 335.185 C 248.872 335.408,249.128 335.986,249.580 336.470 C 250.031 336.955,250.400 337.587,250.400 337.875 C 250.400 338.164,250.681 338.400,251.024 338.400 C 251.367 338.400,251.536 338.580,251.400 338.800 C 251.264 339.020,251.354 339.200,251.600 339.200 C 251.846 339.200,251.936 339.380,251.800 339.600 C 251.664 339.820,251.773 340.000,252.043 340.000 C 252.313 340.000,252.428 340.105,252.300 340.234 C 252.053 340.480,252.686 341.354,254.494 343.262 C 255.096 343.897,255.701 344.863,255.838 345.408 C 255.975 345.954,256.225 346.400,256.395 346.400 C 256.564 346.400,256.927 346.940,257.200 347.600 C 257.473 348.260,257.855 348.800,258.049 348.800 C 258.242 348.800,258.400 348.980,258.400 349.200 C 258.400 349.420,258.774 349.974,259.231 350.431 C 259.688 350.888,259.967 351.509,259.851 351.811 C 259.715 352.167,259.844 352.281,260.220 352.137 C 260.581 351.998,260.800 352.162,260.800 352.570 C 260.800 352.930,261.047 353.320,261.350 353.436 C 261.652 353.552,262.220 354.357,262.611 355.224 C 263.002 356.091,263.474 356.800,263.661 356.800 C 263.847 356.800,264.000 357.030,264.000 357.311 C 264.000 357.592,264.540 358.413,265.200 359.136 C 265.860 359.858,266.400 360.605,266.400 360.796 C 266.400 360.987,266.635 361.381,266.922 361.671 C 267.210 361.962,267.869 362.958,268.387 363.884 C 268.905 364.810,269.508 365.457,269.726 365.322 C 269.945 365.187,270.026 365.239,269.907 365.438 C 269.631 365.901,271.002 368.464,271.344 368.123 C 271.485 367.982,271.600 368.075,271.600 368.329 C 271.600 368.759,272.309 369.761,273.500 371.016 C 273.775 371.306,274.000 371.708,274.000 371.909 C 274.000 372.111,274.360 372.602,274.800 373.000 C 275.240 373.398,275.600 373.966,275.600 374.262 C 275.600 374.558,275.791 374.800,276.024 374.800 C 276.257 374.800,276.336 374.980,276.200 375.200 C 276.064 375.420,276.253 375.600,276.619 375.600 C 277.047 375.600,277.203 375.815,277.055 376.200 C 276.915 376.565,277.055 376.800,277.413 376.800 C 277.736 376.800,278.000 377.160,278.000 377.600 C 278.000 378.040,278.180 378.400,278.400 378.400 C 278.620 378.400,278.800 378.670,278.800 379.000 C 278.800 379.330,278.964 379.600,279.164 379.600 C 279.365 379.600,279.928 380.425,280.416 381.432 C 280.903 382.440,281.549 383.359,281.851 383.475 C 282.153 383.591,282.400 383.908,282.400 384.181 C 282.400 384.453,282.760 385.002,283.200 385.400 C 283.640 385.798,284.003 386.321,284.006 386.562 C 284.010 386.803,284.550 387.609,285.206 388.354 C 285.863 389.099,286.400 389.965,286.400 390.278 C 286.400 390.591,286.580 390.736,286.800 390.600 C 287.020 390.464,287.200 390.740,287.200 391.214 C 287.200 391.737,287.512 392.157,287.996 392.283 C 288.433 392.397,288.707 392.627,288.604 392.794 C 288.501 392.960,288.769 393.503,289.200 394.000 C 289.631 394.497,289.868 395.105,289.728 395.352 C 289.587 395.598,289.618 395.668,289.796 395.506 C 290.198 395.142,291.170 396.365,291.187 397.257 C 291.194 397.619,291.470 398.018,291.800 398.145 C 292.130 398.271,292.400 398.623,292.400 398.927 C 292.400 399.336,293.126 399.500,295.200 399.560 C 298.330 399.652,298.312 399.674,297.454 396.800 C 297.158 395.810,296.995 394.775,297.091 394.500 C 297.188 394.225,297.072 394.000,296.833 394.000 C 296.595 394.000,296.400 393.730,296.400 393.400 C 296.400 393.070,296.198 392.800,295.951 392.800 C 295.650 392.800,295.675 392.592,296.025 392.170 C 296.409 391.708,296.427 391.464,296.093 391.257 C 295.842 391.102,295.592 390.306,295.537 389.488 C 295.482 388.670,295.334 388.000,295.209 388.000 C 295.084 388.000,294.749 386.965,294.463 385.700 C 293.823 382.861,293.149 380.759,292.668 380.100 C 292.423 379.766,292.484 379.598,292.851 379.594 C 293.303 379.589,293.300 379.525,292.833 379.229 C 292.474 379.002,292.290 378.269,292.330 377.235 C 292.365 376.336,292.216 375.600,291.997 375.600 C 291.779 375.600,291.600 375.139,291.600 374.576 C 291.600 374.013,291.460 373.639,291.290 373.745 C 291.119 373.850,290.984 373.066,290.990 372.002 C 290.995 370.928,290.822 370.096,290.600 370.133 C 290.380 370.170,290.191 369.722,290.181 369.138 C 290.170 368.555,289.947 367.818,289.684 367.502 C 289.422 367.185,289.308 366.826,289.431 366.703 C 289.554 366.580,289.387 365.577,289.059 364.474 C 288.732 363.372,288.569 362.364,288.699 362.235 C 288.828 362.106,288.708 362.000,288.433 362.000 C 288.158 362.000,288.008 361.777,288.099 361.504 C 288.190 361.231,288.019 360.761,287.718 360.461 C 287.320 360.063,287.290 359.774,287.606 359.393 C 287.906 359.031,287.910 358.792,287.619 358.612 C 287.389 358.469,287.200 358.003,287.200 357.576 C 287.200 357.114,286.926 356.800,286.524 356.800 C 285.900 356.800,285.899 356.761,286.501 356.300 C 287.102 355.840,287.092 355.674,286.377 354.229 C 285.493 352.440,285.449 352.260,285.983 352.590 C 286.194 352.720,286.118 352.348,285.815 351.763 C 285.511 351.179,285.359 350.451,285.476 350.145 C 285.594 349.840,285.495 349.355,285.257 349.068 C 285.019 348.781,284.780 347.974,284.727 347.273 C 284.673 346.573,284.524 346.000,284.395 346.000 C 284.098 346.000,283.033 341.192,283.164 340.443 C 283.218 340.136,283.056 339.758,282.804 339.603 C 282.553 339.447,282.283 338.978,282.204 338.560 C 282.125 338.142,282.024 337.800,281.980 337.800 C 281.935 337.800,281.854 337.440,281.800 337.000 C 281.546 334.931,281.379 334.184,281.126 333.993 C 280.975 333.878,280.776 333.338,280.683 332.793 C 280.091 329.314,279.856 328.358,279.547 328.168 C 279.356 328.049,279.200 327.233,279.200 326.353 C 279.200 325.388,279.041 324.851,278.800 325.000 C 278.562 325.147,278.400 324.679,278.400 323.847 C 278.400 323.077,278.220 322.336,278.000 322.200 C 277.780 322.064,277.600 321.344,277.600 320.600 C 277.600 319.856,277.420 319.136,277.200 319.000 C 276.980 318.864,276.800 318.328,276.800 317.810 C 276.800 317.291,276.609 316.803,276.376 316.725 C 276.143 316.648,275.942 315.820,275.929 314.886 C 275.916 313.953,275.747 313.091,275.553 312.971 C 275.359 312.851,275.200 312.176,275.200 311.471 C 275.200 310.766,274.840 309.204,274.400 308.000 C 273.960 306.796,273.600 305.404,273.600 304.906 C 273.600 304.408,273.465 304.000,273.300 303.999 C 273.135 303.999,272.952 303.330,272.893 302.513 C 272.835 301.695,272.610 300.850,272.393 300.633 C 272.177 300.417,272.000 299.646,272.000 298.920 C 272.000 298.194,271.809 297.600,271.576 297.600 C 271.329 297.600,271.231 297.098,271.341 296.400 C 271.476 295.544,271.368 295.200,270.965 295.200 C 270.654 295.200,270.400 295.009,270.400 294.776 C 270.400 294.543,270.599 294.476,270.841 294.626 C 271.084 294.776,270.994 294.457,270.640 293.917 C 270.286 293.378,270.093 292.840,270.210 292.724 C 270.327 292.607,270.215 291.991,269.962 291.355 C 269.540 290.296,269.342 289.309,269.072 286.919 C 269.017 286.435,268.843 285.910,268.686 285.753 C 268.529 285.595,268.400 284.867,268.400 284.133 C 268.400 283.400,268.220 282.800,268.000 282.800 C 267.780 282.800,267.594 282.395,267.586 281.900 C 267.578 281.405,267.327 280.559,267.029 280.020 C 266.731 279.481,266.576 278.806,266.686 278.520 C 266.796 278.234,266.687 278.000,266.445 278.000 C 266.203 278.000,266.067 277.595,266.142 277.100 C 266.218 276.605,265.992 275.962,265.640 275.670 C 265.288 275.379,265.231 275.258,265.514 275.402 C 266.088 275.695,265.953 274.228,265.287 272.935 C 265.079 272.531,264.991 271.969,265.092 271.687 C 265.193 271.404,265.102 270.954,264.890 270.687 C 264.678 270.419,264.288 269.210,264.022 268.000 C 263.757 266.790,263.375 265.350,263.174 264.800 C 262.973 264.250,262.769 263.227,262.721 262.528 C 262.673 261.828,262.491 261.344,262.317 261.451 C 262.143 261.559,262.000 261.090,262.000 260.410 C 262.000 259.729,261.714 258.736,261.366 258.204 C 261.017 257.671,260.860 257.027,261.017 256.773 C 261.174 256.519,261.100 256.185,260.852 256.032 C 260.398 255.752,260.107 254.499,259.729 251.200 C 259.615 250.210,259.360 249.229,259.161 249.020 C 258.963 248.811,258.800 248.136,258.800 247.520 C 258.800 246.904,258.617 246.400,258.392 246.400 C 258.160 246.400,258.090 245.980,258.230 245.423 C 258.399 244.749,258.227 244.181,257.675 243.589 C 257.054 242.922,256.948 242.479,257.199 241.602 C 257.464 240.680,257.388 240.438,256.785 240.280 C 256.188 240.124,256.104 239.870,256.348 238.956 C 256.543 238.229,256.453 237.428,256.098 236.715 C 255.793 236.105,255.659 235.244,255.799 234.803 C 255.985 234.216,255.873 234.000,255.380 234.000 C 254.902 234.000,254.768 233.766,254.918 233.193 C 255.034 232.749,254.862 232.119,254.536 231.793 C 254.076 231.333,254.062 231.199,254.471 231.194 C 254.844 231.190,254.865 231.101,254.544 230.894 C 254.294 230.732,253.989 229.970,253.868 229.200 C 253.558 227.239,252.438 222.785,252.129 222.285 C 251.987 222.056,251.830 221.335,251.778 220.684 C 251.727 220.033,251.463 219.362,251.191 219.195 C 250.920 219.027,250.821 218.689,250.972 218.445 C 251.131 218.188,250.973 218.000,250.600 218.000 C 250.244 218.000,250.066 217.817,250.204 217.593 C 250.342 217.370,250.641 217.302,250.868 217.442 C 251.094 217.582,251.043 217.270,250.754 216.748 C 250.465 216.227,250.207 215.710,250.182 215.600 C 250.156 215.490,250.020 214.950,249.879 214.400 C 249.738 213.850,249.521 212.770,249.396 212.000 C 249.182 210.679,248.957 209.651,248.785 209.200 C 248.742 209.090,248.743 208.665,248.786 208.256 C 248.833 207.812,248.691 207.620,248.433 207.780 C 248.149 207.955,248.000 207.479,248.000 206.400 C 248.000 205.404,247.842 204.850,247.600 205.000 C 247.200 205.247,247.040 204.247,247.191 202.446 C 247.235 201.921,247.078 201.372,246.841 201.225 C 246.604 201.079,246.349 200.394,246.273 199.702 C 246.197 199.011,245.922 198.188,245.661 197.873 C 244.890 196.945,246.665 194.022,247.635 194.622 C 247.965 194.826,249.603 194.063,250.016 193.513 C 250.134 193.355,250.809 193.182,251.516 193.128 C 252.222 193.074,252.800 192.888,252.800 192.715 C 252.800 192.542,253.124 192.400,253.520 192.400 C 253.916 192.400,254.431 192.209,254.665 191.975 C 254.899 191.741,255.649 191.534,256.331 191.514 C 257.014 191.495,257.478 191.326,257.363 191.140 C 257.247 190.953,257.523 190.800,257.976 190.800 C 258.429 190.800,258.800 190.620,258.800 190.400 C 258.800 190.180,258.935 190.021,259.100 190.047 C 260.091 190.204,261.210 189.940,261.000 189.600 C 260.864 189.380,261.078 189.186,261.476 189.169 C 262.174 189.140,262.730 189.045,263.990 188.742 C 264.315 188.664,264.833 188.365,265.142 188.077 C 265.451 187.789,265.976 187.659,266.309 187.787 C 266.643 187.915,267.227 187.737,267.608 187.393 C 267.988 187.048,268.457 186.810,268.650 186.863 C 269.248 187.026,270.800 186.367,270.800 185.949 C 270.800 185.731,270.665 185.636,270.500 185.738 C 270.335 185.840,270.200 181.621,270.200 176.362 C 270.200 171.103,270.357 166.800,270.550 166.800 C 270.742 166.800,270.785 165.765,270.645 164.500 C 270.333 161.666,270.346 162.692,270.512 154.400 C 270.592 150.419,270.491 147.184,270.277 146.900 C 270.037 146.579,270.053 146.400,270.322 146.400 C 270.786 146.400,270.697 138.005,270.225 137.240 C 270.075 136.998,270.163 136.800,270.420 136.800 C 270.735 136.800,270.811 136.312,270.652 135.300 C 270.419 133.813,270.360 128.221,270.550 125.677 C 270.605 124.949,270.517 124.272,270.355 124.172 C 269.958 123.927,267.200 125.580,267.200 126.063 C 267.200 126.274,267.020 126.336,266.800 126.200 C 266.580 126.064,266.400 126.143,266.400 126.376 C 266.400 126.609,266.119 126.800,265.776 126.800 C 265.433 126.800,265.247 126.953,265.362 127.139 C 265.562 127.462,264.599 128.404,261.453 130.959 C 260.668 131.596,260.119 132.269,260.234 132.454 C 260.348 132.639,260.170 132.687,259.839 132.559 C 259.492 132.426,258.813 132.751,258.242 133.322 C 257.696 133.868,257.148 134.214,257.024 134.091 C 256.901 133.968,256.800 134.090,256.800 134.362 C 256.800 135.005,255.769 136.036,255.448 135.714 C 255.311 135.578,255.200 135.677,255.200 135.933 C 255.200 136.190,254.975 136.401,254.700 136.401 C 254.425 136.402,253.846 136.931,253.413 137.577 C 252.980 138.224,252.305 138.836,251.913 138.939 C 251.521 139.041,251.200 139.412,251.200 139.763 C 251.200 140.133,250.865 140.400,250.400 140.400 C 249.960 140.400,249.600 140.536,249.600 140.702 C 249.600 140.869,249.069 141.240,248.419 141.527 C 247.769 141.815,247.123 142.412,246.983 142.854 C 246.826 143.349,246.503 143.572,246.143 143.434 C 245.795 143.300,245.664 143.380,245.819 143.632 C 245.963 143.864,245.708 144.151,245.253 144.270 C 244.799 144.389,244.318 144.827,244.186 145.243 C 244.048 145.678,243.575 146.003,243.073 146.006 C 242.363 146.011,242.312 146.085,242.800 146.400 C 243.318 146.735,243.308 146.789,242.729 146.794 C 242.360 146.797,241.726 147.205,241.319 147.700 C 240.913 148.195,240.315 148.657,239.990 148.727 C 239.425 148.849,237.838 150.454,237.251 151.497 C 237.097 151.771,236.495 152.034,235.914 152.082 C 235.332 152.130,234.889 152.282,234.928 152.418 C 234.968 152.555,234.325 153.345,233.500 154.173 C 232.675 155.002,232.000 155.566,232.000 155.426 C 232.000 155.287,231.453 155.732,230.785 156.415 C 229.983 157.235,229.134 157.682,228.285 157.729 C 227.578 157.768,226.653 158.113,226.230 158.495 C 225.795 158.888,225.058 159.117,224.536 159.023 C 223.611 158.855,221.420 159.720,220.984 160.425 C 220.857 160.631,220.223 160.800,219.576 160.800 C 218.929 160.800,218.400 160.991,218.400 161.224 C 218.400 161.457,218.247 161.552,218.059 161.437 C 217.872 161.321,217.062 161.561,216.259 161.970 C 215.326 162.446,214.795 162.549,214.787 162.257 C 214.780 162.006,214.535 162.115,214.243 162.500 C 213.951 162.885,213.237 163.239,212.656 163.287 C 212.075 163.335,211.600 163.515,211.600 163.687 C 211.600 163.859,211.150 164.000,210.600 164.000 C 210.050 164.000,209.600 164.141,209.600 164.314 C 209.600 164.487,209.285 164.640,208.900 164.653 C 207.856 164.690,207.031 164.957,206.745 165.350 C 206.606 165.542,206.024 165.700,205.453 165.700 C 204.882 165.700,204.512 165.858,204.631 166.050 C 204.827 166.367,203.919 166.588,203.058 166.433 C 202.870 166.400,202.465 166.580,202.158 166.835 C 201.851 167.090,201.600 167.164,201.600 167.000 C 201.600 166.836,201.371 166.893,201.090 167.125 C 200.810 167.358,200.135 167.610,199.590 167.684 C 199.046 167.759,198.400 167.946,198.155 168.100 C 197.911 168.253,197.158 168.421,196.483 168.472 C 195.808 168.524,195.344 168.709,195.451 168.883 C 195.559 169.057,195.412 169.221,195.124 169.246 C 194.011 169.344,193.269 169.584,191.200 170.515 C 190.650 170.762,190.020 170.973,189.800 170.982 C 189.580 170.992,189.051 171.349,188.625 171.775 C 188.089 172.311,187.799 172.398,187.686 172.058 C 187.570 171.711,187.375 171.689,187.021 171.983 C 186.745 172.212,186.021 172.440,185.412 172.491 C 184.803 172.541,184.221 172.800,184.119 173.066 C 184.017 173.332,183.697 173.459,183.407 173.347 C 183.118 173.236,182.762 173.338,182.617 173.573 C 182.472 173.808,181.851 174.000,181.238 174.000 C 180.625 174.000,179.819 174.338,179.445 174.750 C 178.781 175.484,176.603 175.843,177.033 175.147 C 177.153 174.953,176.789 175.004,176.225 175.261 C 175.661 175.518,175.200 175.883,175.200 176.072 C 175.200 176.261,174.750 176.302,174.200 176.164 C 173.440 175.974,173.200 176.070,173.200 176.564 C 173.200 177.046,172.958 177.154,172.270 176.982 C 171.680 176.834,171.151 176.977,170.821 177.374 C 169.441 179.038,169.200 178.210,169.200 171.800 C 169.200 167.933,169.049 165.600,168.800 165.600 C 168.340 165.600,168.246 161.342,168.700 161.062 C 168.865 160.960,168.960 146.234,168.911 128.338 C 168.863 110.442,168.928 93.504,169.056 90.697 L 169.290 85.595 199.202 85.697 L 229.115 85.800 229.400 108.600 C 229.556 121.140,229.668 131.805,229.647 132.300 C 229.593 133.571,230.578 133.104,233.234 130.598 C 233.582 130.269,234.077 130.000,234.334 130.000 C 234.590 130.000,234.800 129.796,234.800 129.546 C 234.800 128.902,236.783 127.142,237.211 127.407 C 237.406 127.527,237.848 127.080,238.193 126.413 C 238.538 125.746,239.086 125.200,239.410 125.200 C 239.735 125.200,240.000 124.908,240.000 124.551 C 240.000 124.022,240.110 123.993,240.595 124.396 C 241.077 124.796,241.237 124.768,241.437 124.247 C 241.573 123.894,241.849 123.707,242.052 123.832 C 242.254 123.957,242.370 123.899,242.310 123.702 C 242.249 123.506,242.875 122.706,243.700 121.925 C 244.525 121.144,245.206 120.617,245.213 120.753 C 245.221 120.889,245.581 120.575,246.013 120.056 C 246.446 119.536,246.800 119.259,246.800 119.440 C 246.800 119.620,247.501 118.993,248.358 118.046 C 249.215 117.099,250.041 116.360,250.193 116.404 C 250.664 116.539,253.600 113.889,253.600 113.329 C 253.600 113.038,253.793 112.800,254.029 112.800 C 254.264 112.800,254.729 112.528,255.061 112.196 C 255.393 111.864,255.817 111.687,256.003 111.802 C 256.190 111.917,256.457 111.649,256.598 111.206 C 256.830 110.474,257.274 110.222,258.100 110.353 C 258.265 110.379,258.400 110.124,258.400 109.787 C 258.400 109.451,258.669 109.072,258.998 108.946 C 259.326 108.819,259.479 108.527,259.336 108.296 C 259.190 108.061,259.267 107.994,259.511 108.145 C 259.749 108.292,260.060 108.227,260.200 108.000 C 260.340 107.773,260.623 107.691,260.828 107.817 C 261.032 107.944,261.200 107.846,261.200 107.600 C 261.200 107.354,261.384 107.267,261.610 107.406 C 261.835 107.545,261.970 107.486,261.910 107.273 C 261.849 107.061,262.217 106.521,262.726 106.074 C 263.236 105.627,263.641 105.112,263.626 104.930 C 263.612 104.749,263.735 104.595,263.900 104.590 C 264.511 104.568,266.635 102.981,267.747 101.716 C 268.377 100.998,269.040 100.501,269.219 100.612 C 270.448 101.371,270.600 99.296,270.396 84.555 C 270.284 76.440,270.319 69.614,270.473 69.386 C 270.628 69.159,270.604 68.304,270.419 67.486 C 270.199 66.509,270.227 66.000,270.500 66.000 C 270.782 66.000,270.829 64.029,270.647 59.900 C 270.499 56.545,270.394 51.787,270.414 49.328 C 270.447 45.246,270.381 44.818,269.652 44.428 C 269.097 44.131,253.564 44.000,218.826 44.000 C 191.312 44.000,168.800 43.865,168.800 43.700 C 168.800 43.535,159.710 43.400,148.600 43.400 C 135.392 43.400,128.404 43.538,128.412 43.800 " stroke="none" fill="#0474f4" fill-rule="evenodd"></path><path id="path1" d="M127.785 43.700 C 127.681 43.975,127.641 114.850,127.698 201.200 L 127.800 358.200 128.900 358.327 C 129.744 358.424,129.999 358.284,129.994 357.727 C 129.990 357.320,129.858 357.176,129.694 357.400 C 129.532 357.620,129.095 357.850,128.723 357.912 C 128.088 358.018,128.059 348.322,128.248 200.612 C 128.358 114.035,128.342 43.200,128.212 43.200 C 128.082 43.200,127.889 43.425,127.785 43.700 M138.900 43.500 C 144.345 43.563,153.255 43.563,158.700 43.500 C 164.145 43.437,159.690 43.385,148.800 43.385 C 137.910 43.385,133.455 43.437,138.900 43.500 M269.705 44.435 C 270.329 44.798,270.404 45.500,270.363 50.648 C 270.338 53.840,270.426 56.560,270.559 56.692 C 270.692 56.825,270.800 54.023,270.800 50.467 C 270.800 44.024,270.797 44.000,269.900 44.012 C 269.093 44.023,269.072 44.067,269.705 44.435 M270.315 67.200 C 270.412 67.860,270.560 68.400,270.645 68.400 C 270.730 68.400,270.800 67.860,270.800 67.200 C 270.800 66.540,270.651 66.000,270.469 66.000 C 270.287 66.000,270.218 66.540,270.315 67.200 M270.319 69.500 C 270.248 69.665,270.291 76.370,270.414 84.400 L 270.637 99.000 270.718 84.100 C 270.792 70.620,270.735 68.527,270.319 69.500 M169.200 86.000 C 169.200 86.263,179.541 86.400,199.424 86.400 C 219.471 86.400,229.564 86.265,229.400 86.000 C 229.239 85.739,218.729 85.600,199.176 85.600 C 179.459 85.600,169.200 85.737,169.200 86.000 M168.960 96.600 C 168.961 99.900,169.022 101.197,169.098 99.482 C 169.173 97.767,169.172 95.067,169.097 93.482 C 169.021 91.897,168.959 93.300,168.960 96.600 M270.086 100.012 C 269.804 100.462,269.424 100.738,269.240 100.625 C 269.057 100.512,268.585 100.775,268.191 101.209 C 267.783 101.661,267.674 102.000,267.938 102.000 C 268.192 102.000,268.400 101.820,268.400 101.600 C 268.400 101.380,268.683 101.200,269.029 101.200 C 269.795 101.200,270.914 100.143,270.731 99.592 C 270.657 99.372,270.367 99.561,270.086 100.012 M265.154 103.950 C 264.629 104.363,264.050 104.708,263.867 104.717 C 263.073 104.756,263.151 105.200,263.952 105.200 C 264.438 105.200,265.286 104.750,265.836 104.200 C 267.006 103.031,266.540 102.860,265.154 103.950 M168.914 109.000 C 168.917 110.100,168.995 110.503,169.087 109.895 C 169.179 109.286,169.177 108.386,169.082 107.895 C 168.987 107.403,168.911 107.900,168.914 109.000 M260.200 108.000 C 260.060 108.227,259.732 108.294,259.472 108.148 C 259.115 107.947,259.112 108.004,259.461 108.383 C 259.779 108.727,260.138 108.763,260.613 108.497 C 261.044 108.255,261.144 108.013,260.879 107.849 C 260.646 107.705,260.340 107.773,260.200 108.000 M257.029 110.629 C 256.683 110.974,256.400 111.452,256.400 111.690 C 256.400 111.928,256.760 111.707,257.200 111.200 C 258.347 109.878,258.216 109.441,257.029 110.629 M255.300 111.865 C 254.604 112.146,254.673 112.800,255.400 112.800 C 255.730 112.800,256.000 112.530,256.000 112.200 C 256.000 111.870,255.955 111.614,255.900 111.632 C 255.845 111.649,255.575 111.754,255.300 111.865 M229.334 114.800 C 229.334 116.450,229.405 117.125,229.491 116.300 C 229.578 115.475,229.578 114.125,229.491 113.300 C 229.405 112.475,229.334 113.150,229.334 114.800 M168.954 117.200 C 168.954 119.950,169.018 121.075,169.096 119.700 C 169.174 118.325,169.174 116.075,169.096 114.700 C 169.018 113.325,168.954 114.450,168.954 117.200 M229.200 126.200 C 229.200 130.123,229.305 133.228,229.434 133.099 C 229.707 132.826,229.661 119.527,229.385 119.252 C 229.283 119.150,229.200 122.277,229.200 126.200 M246.077 120.026 C 245.509 120.935,245.812 121.045,246.632 120.226 C 246.948 119.910,247.061 119.561,246.883 119.451 C 246.705 119.342,246.343 119.600,246.077 120.026 M238.400 126.000 C 237.900 126.933,238.211 127.046,239.029 126.229 C 239.693 125.564,239.759 125.200,239.214 125.200 C 239.002 125.200,238.635 125.560,238.400 126.000 M270.328 130.041 C 270.258 132.044,270.332 133.889,270.494 134.141 C 270.656 134.394,270.791 132.755,270.794 130.500 C 270.801 125.420,270.502 125.125,270.328 130.041 M168.924 129.000 C 168.926 130.320,169.001 130.812,169.090 130.093 C 169.179 129.374,169.177 128.294,169.086 127.693 C 168.995 127.092,168.922 127.680,168.924 129.000 M236.629 127.429 C 235.845 128.212,235.840 128.400,236.600 128.400 C 236.930 128.400,237.200 128.119,237.200 127.776 C 237.200 127.407,237.388 127.269,237.662 127.438 C 237.948 127.615,238.015 127.548,237.838 127.262 C 237.469 126.665,237.380 126.677,236.629 127.429 M264.241 127.911 C 263.604 128.290,262.403 129.275,261.573 130.100 C 260.742 130.925,259.946 131.600,259.803 131.600 C 259.660 131.600,259.292 131.851,258.986 132.157 C 258.510 132.632,258.567 132.705,259.376 132.657 C 259.897 132.626,260.256 132.491,260.174 132.359 C 260.093 132.226,260.671 131.596,261.460 130.959 C 263.531 129.286,265.833 127.202,265.600 127.213 C 265.490 127.217,264.879 127.531,264.241 127.911 M231.776 131.787 C 231.289 132.156,231.197 132.379,231.529 132.387 C 231.819 132.394,232.327 132.130,232.657 131.800 C 233.428 131.029,232.791 131.020,231.776 131.787 M252.860 137.451 C 252.343 138.002,252.023 138.556,252.150 138.683 C 252.390 138.923,253.963 137.224,253.987 136.700 C 254.006 136.269,253.907 136.335,252.860 137.451 M168.973 146.200 C 168.973 151.480,169.030 153.585,169.099 150.877 C 169.168 148.169,169.168 143.849,169.099 141.277 C 169.029 138.705,168.972 140.920,168.973 146.200 M270.302 137.800 C 270.407 138.350,270.562 138.800,270.647 138.800 C 270.731 138.800,270.800 138.350,270.800 137.800 C 270.800 137.250,270.645 136.800,270.455 136.800 C 270.266 136.800,270.197 137.250,270.302 137.800 M249.260 140.242 C 248.962 140.578,248.852 140.976,249.014 141.126 C 249.177 141.277,249.390 141.175,249.488 140.900 C 249.586 140.625,250.012 140.400,250.433 140.400 C 250.855 140.400,251.200 140.220,251.200 140.000 C 251.200 139.388,249.868 139.554,249.260 140.242 M270.501 142.200 C 270.505 143.080,270.587 143.393,270.683 142.895 C 270.779 142.398,270.775 141.678,270.675 141.295 C 270.575 140.913,270.496 141.320,270.501 142.200 M246.246 143.025 C 246.114 143.369,245.853 143.556,245.666 143.441 C 245.480 143.326,244.723 143.854,243.985 144.616 C 243.019 145.612,242.826 146.000,243.295 146.000 C 243.653 146.000,244.046 145.685,244.168 145.300 C 244.291 144.915,244.916 144.367,245.559 144.082 C 246.667 143.592,247.568 142.400,246.830 142.400 C 246.641 142.400,246.378 142.681,246.246 143.025 M241.417 146.924 C 240.426 147.527,239.600 148.275,239.600 148.571 C 239.600 149.038,240.618 148.576,241.143 147.871 C 241.441 147.470,242.071 146.987,242.543 146.797 C 243.024 146.602,243.137 146.450,242.800 146.449 C 242.470 146.448,241.848 146.661,241.417 146.924 M270.509 149.200 C 270.509 150.190,270.587 150.595,270.682 150.100 C 270.778 149.605,270.778 148.795,270.682 148.300 C 270.587 147.805,270.509 148.210,270.509 149.200 M237.200 150.800 C 237.200 151.020,236.938 151.200,236.618 151.200 C 236.017 151.200,233.827 153.161,234.112 153.445 C 234.200 153.533,234.598 153.244,234.998 152.802 C 235.397 152.361,236.013 152.000,236.366 152.000 C 236.719 152.000,237.232 151.640,237.507 151.200 C 237.803 150.726,237.843 150.400,237.603 150.400 C 237.382 150.400,237.200 150.580,237.200 150.800 M230.060 156.251 C 229.543 156.802,229.208 157.341,229.315 157.449 C 229.532 157.665,231.600 155.859,231.600 155.454 C 231.600 154.949,230.981 155.269,230.060 156.251 M270.336 159.621 C 270.261 160.953,270.322 162.348,270.472 162.721 C 270.621 163.094,270.756 162.005,270.772 160.300 C 270.805 156.618,270.528 156.187,270.336 159.621 M220.000 160.085 C 220.000 160.258,219.638 160.400,219.195 160.400 C 218.752 160.400,218.077 160.561,217.695 160.757 C 217.313 160.953,216.505 161.309,215.900 161.548 C 215.295 161.787,214.800 162.147,214.800 162.348 C 214.800 162.549,215.457 162.379,216.259 161.970 C 217.062 161.561,217.872 161.321,218.059 161.437 C 218.247 161.552,218.400 161.457,218.400 161.224 C 218.400 160.991,218.929 160.800,219.576 160.800 C 220.223 160.800,220.866 160.617,221.004 160.393 C 221.142 160.170,221.451 160.108,221.689 160.255 C 221.940 160.410,222.009 160.339,221.854 160.087 C 221.551 159.598,220.000 159.596,220.000 160.085 M168.667 161.067 C 168.239 161.494,168.360 165.600,168.800 165.600 C 169.022 165.600,169.200 164.533,169.200 163.200 C 169.200 160.778,169.151 160.582,168.667 161.067 M212.800 162.377 C 212.088 162.769,210.488 163.435,209.475 163.761 C 209.034 163.903,208.866 164.184,209.048 164.477 C 209.280 164.852,209.382 164.853,209.507 164.480 C 209.595 164.216,210.102 164.000,210.633 164.000 C 211.165 164.000,211.600 163.820,211.600 163.600 C 211.600 163.380,211.735 163.221,211.900 163.247 C 212.928 163.410,213.947 163.116,214.145 162.600 C 214.394 161.950,213.766 161.846,212.800 162.377 M204.744 165.557 C 205.241 165.872,206.800 165.717,206.800 165.353 C 206.800 165.269,206.215 165.203,205.500 165.206 C 204.616 165.210,204.374 165.323,204.744 165.557 M201.834 166.657 C 201.626 167.198,201.686 167.227,202.173 166.822 C 202.499 166.552,202.908 166.414,203.082 166.516 C 203.257 166.617,203.760 166.555,204.200 166.378 C 204.829 166.125,204.689 166.050,203.543 166.028 C 202.542 166.009,202.007 166.206,201.834 166.657 M199.600 167.200 C 199.600 167.420,199.859 167.600,200.176 167.600 C 200.493 167.600,200.864 167.420,201.000 167.200 C 201.136 166.980,200.877 166.800,200.424 166.800 C 199.971 166.800,199.600 166.980,199.600 167.200 M270.200 176.362 C 270.200 181.621,270.335 185.840,270.500 185.738 C 270.665 185.636,270.800 181.333,270.800 176.176 C 270.800 171.019,270.665 166.800,270.500 166.800 C 270.335 166.800,270.200 171.103,270.200 176.362 M190.084 170.615 C 189.422 171.366,189.970 171.349,190.976 170.587 C 191.522 170.174,191.582 170.005,191.176 170.015 C 190.859 170.024,190.368 170.294,190.084 170.615 M187.843 171.433 C 187.472 172.399,187.535 172.463,188.400 172.000 C 188.840 171.765,189.200 171.398,189.200 171.186 C 189.200 170.551,188.105 170.750,187.843 171.433 M179.067 174.569 C 178.939 174.904,178.528 175.054,178.070 174.934 C 177.641 174.822,177.183 174.903,177.052 175.115 C 176.609 175.833,178.762 175.505,179.445 174.750 C 179.819 174.338,179.935 174.000,179.705 174.000 C 179.474 174.000,179.187 174.256,179.067 174.569 M170.400 177.171 C 170.400 177.375,170.085 177.624,169.700 177.724 C 169.109 177.879,169.102 177.914,169.651 177.954 C 170.009 177.979,170.526 177.730,170.800 177.400 C 171.144 176.985,171.159 176.800,170.849 176.800 C 170.602 176.800,170.400 176.967,170.400 177.171 M269.600 186.800 C 269.115 187.114,269.172 187.189,269.900 187.194 C 270.395 187.197,270.800 187.020,270.800 186.800 C 270.800 186.299,270.376 186.299,269.600 186.800 M267.600 187.400 C 267.195 187.888,267.215 188.000,267.708 188.000 C 268.042 188.000,268.418 187.730,268.545 187.400 C 268.671 187.070,268.623 186.800,268.436 186.800 C 268.250 186.800,267.874 187.070,267.600 187.400 M265.300 187.865 C 264.624 188.138,264.664 188.800,265.357 188.800 C 265.664 188.800,266.018 188.530,266.145 188.200 C 266.380 187.587,266.183 187.509,265.300 187.865 M263.903 188.630 C 263.648 188.886,262.581 189.123,261.476 189.169 C 261.078 189.186,260.864 189.380,261.000 189.600 C 261.210 189.940,260.091 190.204,259.100 190.047 C 258.935 190.021,258.800 190.167,258.800 190.372 C 258.800 190.577,258.395 190.822,257.900 190.918 C 257.249 191.043,257.360 191.106,258.300 191.146 C 259.015 191.175,259.600 191.020,259.600 190.800 C 259.600 190.580,260.039 190.400,260.576 190.400 C 261.113 190.400,261.664 190.220,261.800 190.000 C 261.936 189.780,262.352 189.597,262.724 189.594 C 263.552 189.586,264.660 188.926,264.355 188.622 C 264.233 188.500,264.030 188.504,263.903 188.630 M250.000 193.600 C 250.000 193.820,250.270 194.000,250.600 194.000 C 250.930 194.000,251.200 193.820,251.200 193.600 C 251.200 193.380,250.930 193.200,250.600 193.200 C 250.270 193.200,250.000 193.380,250.000 193.600 M245.200 197.102 C 245.200 197.322,245.470 197.726,245.800 198.000 C 246.135 198.278,246.400 198.321,246.400 198.098 C 246.400 197.878,246.130 197.474,245.800 197.200 C 245.465 196.922,245.200 196.879,245.200 197.102 M247.112 204.253 C 247.303 205.251,247.690 205.231,247.839 204.216 C 247.884 203.908,247.697 203.569,247.423 203.464 C 247.082 203.333,246.984 203.582,247.112 204.253 M201.600 210.800 C 201.600 211.020,201.870 211.200,202.200 211.200 C 202.530 211.200,202.800 211.020,202.800 210.800 C 202.800 210.580,202.530 210.400,202.200 210.400 C 201.870 210.400,201.600 210.580,201.600 210.800 M249.606 213.500 C 249.609 213.885,249.779 214.463,249.982 214.784 C 250.250 215.208,250.341 215.016,250.315 214.084 C 250.278 212.779,249.595 212.217,249.606 213.500 M250.392 216.191 C 250.796 216.677,250.798 216.921,250.400 217.400 C 249.998 217.885,250.010 218.000,250.464 218.000 C 251.268 218.000,251.330 216.135,250.536 215.831 C 249.994 215.623,249.970 215.682,250.392 216.191 M184.446 216.557 C 183.723 216.958,183.620 217.165,184.022 217.414 C 184.340 217.610,184.616 217.552,184.710 217.271 C 184.796 217.012,185.201 216.800,185.610 216.800 C 186.018 216.800,186.464 216.620,186.600 216.400 C 186.952 215.830,185.576 215.931,184.446 216.557 M209.900 216.665 C 210.181 216.778,210.400 217.554,210.400 218.433 C 210.400 219.661,210.551 219.999,211.100 219.994 C 211.497 219.990,211.626 219.860,211.399 219.694 C 211.178 219.532,210.935 218.860,210.858 218.200 C 210.689 216.739,210.496 216.391,209.876 216.432 C 209.533 216.454,209.539 216.519,209.900 216.665 M177.866 218.961 C 177.022 219.410,176.563 219.854,176.846 219.949 C 177.129 220.043,177.429 219.913,177.513 219.660 C 177.598 219.407,178.172 219.200,178.791 219.200 C 179.409 219.200,180.007 218.960,180.119 218.667 C 180.408 217.914,179.649 218.013,177.866 218.961 M250.800 218.767 C 250.800 219.005,250.967 219.200,251.171 219.200 C 251.375 219.200,251.633 219.515,251.745 219.900 C 251.867 220.321,251.918 220.214,251.874 219.631 C 251.803 218.696,250.800 217.888,250.800 218.767 M174.576 220.187 C 174.089 220.556,173.997 220.779,174.329 220.787 C 174.619 220.794,175.127 220.530,175.457 220.200 C 176.228 219.429,175.591 219.420,174.576 220.187 M172.800 220.843 C 172.800 221.086,172.530 221.182,172.200 221.055 C 171.870 220.929,171.600 220.999,171.600 221.213 C 171.600 221.810,172.643 221.671,173.200 221.000 C 173.544 220.585,173.559 220.400,173.249 220.400 C 173.002 220.400,172.800 220.599,172.800 220.843 M211.200 221.484 C 211.200 222.154,211.459 222.917,211.776 223.180 C 212.271 223.591,212.293 223.443,211.934 222.129 C 211.393 220.150,211.200 219.980,211.200 221.484 M170.196 221.607 C 170.058 221.830,169.782 221.913,169.584 221.790 C 169.008 221.434,168.750 223.176,168.901 226.405 L 169.041 229.400 169.121 225.900 C 169.192 222.761,169.278 222.400,169.957 222.400 C 170.374 222.400,170.818 222.130,170.945 221.800 C 171.202 221.130,170.588 220.971,170.196 221.607 M251.897 222.100 C 252.115 222.375,252.393 222.870,252.515 223.200 C 252.641 223.542,252.750 223.327,252.768 222.700 C 252.790 221.939,252.600 221.600,252.151 221.600 C 251.688 221.600,251.615 221.743,251.897 222.100 M253.115 226.000 C 253.212 226.660,253.360 227.200,253.445 227.200 C 253.530 227.200,253.600 226.660,253.600 226.000 C 253.600 225.340,253.451 224.800,253.269 224.800 C 253.087 224.800,253.018 225.340,253.115 226.000 M212.846 227.876 C 212.821 228.358,212.980 228.864,213.200 229.000 C 213.420 229.136,213.600 229.757,213.600 230.381 C 213.600 231.027,213.862 231.615,214.209 231.748 C 214.701 231.937,214.739 231.834,214.409 231.217 C 214.184 230.797,214.000 229.991,214.000 229.426 C 214.000 228.862,213.833 228.400,213.629 228.400 C 213.425 228.400,213.176 228.085,213.076 227.700 C 212.934 227.159,212.882 227.200,212.846 227.876 M253.886 229.104 C 254.148 231.091,254.400 231.280,254.400 229.490 C 254.400 228.697,254.240 227.948,254.044 227.827 C 253.849 227.707,253.778 228.281,253.886 229.104 M254.544 231.106 C 254.214 231.319,254.242 231.542,254.644 231.916 C 255.106 232.344,255.200 232.293,255.200 231.616 C 255.200 230.705,255.184 230.693,254.544 231.106 M214.400 233.976 C 214.400 234.429,214.580 234.800,214.800 234.800 C 215.020 234.800,215.200 234.541,215.200 234.224 C 215.200 233.907,215.020 233.536,214.800 233.400 C 214.580 233.264,214.400 233.523,214.400 233.976 M168.800 236.077 C 168.800 236.340,168.740 238.763,168.668 241.463 C 168.595 244.163,168.682 246.603,168.862 246.886 C 169.041 247.169,169.191 244.745,169.194 241.500 C 169.197 238.255,169.110 235.600,169.000 235.600 C 168.890 235.600,168.800 235.815,168.800 236.077 M256.400 238.800 C 256.400 239.240,256.387 239.731,256.370 239.890 C 256.353 240.050,256.538 240.216,256.780 240.260 C 257.022 240.304,257.062 240.257,256.868 240.156 C 256.675 240.055,256.601 239.528,256.705 238.986 C 256.808 238.444,256.782 238.000,256.647 238.000 C 256.511 238.000,256.400 238.360,256.400 238.800 M216.000 240.200 C 216.000 240.530,216.292 240.800,216.649 240.800 C 217.180 240.800,217.208 240.691,216.800 240.200 C 216.526 239.870,216.234 239.600,216.151 239.600 C 216.068 239.600,216.000 239.870,216.000 240.200 M257.154 241.646 C 256.931 242.694,257.758 244.375,258.253 243.880 C 258.396 243.737,258.326 243.390,258.095 243.110 C 257.865 242.829,257.609 242.150,257.526 241.600 L 257.376 240.600 257.154 241.646 M217.606 245.500 C 217.603 245.995,217.780 246.400,218.000 246.400 C 218.501 246.400,218.501 245.976,218.000 245.200 C 217.686 244.715,217.611 244.772,217.606 245.500 M168.969 258.000 C 168.969 262.510,169.027 264.355,169.098 262.100 C 169.170 259.845,169.170 256.155,169.098 253.900 C 169.027 251.645,168.969 253.490,168.969 258.000 M219.209 251.857 C 219.204 252.329,219.496 252.828,219.857 252.967 C 220.813 253.333,220.841 253.112,219.982 251.994 C 219.242 251.032,219.218 251.028,219.209 251.857 M259.606 252.300 C 259.624 253.177,260.388 253.759,260.394 252.900 C 260.397 252.405,260.220 252.000,260.000 252.000 C 259.780 252.000,259.603 252.135,259.606 252.300 M220.000 254.753 C 220.000 255.796,220.616 256.177,220.692 255.180 C 220.723 254.760,220.581 254.312,220.375 254.184 C 220.169 254.057,220.000 254.313,220.000 254.753 M222.432 263.457 C 222.414 263.929,222.667 264.417,222.993 264.542 C 223.351 264.679,223.495 265.053,223.356 265.485 C 223.166 266.073,223.199 266.095,223.542 265.609 C 223.841 265.186,223.810 264.845,223.432 264.409 C 223.142 264.074,222.805 263.530,222.684 263.200 C 222.534 262.792,222.453 262.874,222.432 263.457 M262.806 263.900 C 262.824 264.777,263.588 265.359,263.594 264.500 C 263.597 264.005,263.420 263.600,263.200 263.600 C 262.980 263.600,262.803 263.735,262.806 263.900 M263.902 267.800 C 264.007 268.350,264.162 268.800,264.247 268.800 C 264.331 268.800,264.400 268.350,264.400 267.800 C 264.400 267.250,264.245 266.800,264.055 266.800 C 263.866 266.800,263.797 267.250,263.902 267.800 M224.800 272.527 C 224.800 273.217,225.913 274.220,226.276 273.857 C 226.418 273.716,226.323 273.600,226.067 273.600 C 225.810 273.600,225.600 273.341,225.600 273.024 C 225.600 272.707,225.420 272.336,225.200 272.200 C 224.980 272.064,224.800 272.211,224.800 272.527 M168.414 282.769 C 168.437 288.442,168.606 292.400,168.826 292.400 C 169.358 292.400,169.320 273.721,168.788 273.392 C 168.509 273.220,168.388 276.250,168.414 282.769 M225.443 275.367 C 225.576 275.715,225.861 276.000,226.076 276.000 C 226.602 276.000,226.273 275.091,225.675 274.892 C 225.382 274.794,225.293 274.977,225.443 275.367 M266.370 276.100 C 266.076 277.090,266.091 278.000,266.403 278.000 C 266.621 278.000,266.800 277.550,266.800 277.000 C 266.800 276.206,266.516 275.610,266.370 276.100 M266.845 279.709 C 267.508 280.984,267.600 281.033,267.600 280.109 C 267.600 279.656,267.326 279.180,266.991 279.052 C 266.479 278.855,266.455 278.960,266.845 279.709 M227.360 282.000 C 227.486 282.550,227.592 283.405,227.595 283.900 C 227.598 284.501,227.833 284.789,228.300 284.768 C 228.718 284.750,228.799 284.656,228.500 284.535 C 228.225 284.424,227.997 283.853,227.994 283.267 C 227.991 282.680,227.795 281.930,227.559 281.600 C 227.223 281.129,227.180 281.216,227.360 282.000 M228.412 286.657 C 228.405 287.349,228.639 288.006,228.930 288.118 C 229.572 288.364,229.551 287.330,228.891 286.200 C 228.464 285.468,228.423 285.507,228.412 286.657 M269.388 289.208 C 269.527 290.979,270.000 291.179,270.000 289.467 C 270.000 288.660,269.841 288.000,269.647 288.000 C 269.452 288.000,269.336 288.544,269.388 289.208 M229.326 289.887 C 229.321 290.279,229.570 290.960,229.877 291.400 C 230.403 292.152,230.425 292.130,230.233 291.035 C 229.995 289.671,229.337 288.839,229.326 289.887 M270.250 292.500 C 270.366 293.215,270.459 294.115,270.456 294.500 C 270.452 294.885,270.709 295.200,271.025 295.200 C 271.684 295.200,271.795 294.568,271.200 294.200 C 270.980 294.064,270.800 293.333,270.800 292.576 C 270.800 291.819,270.629 291.200,270.419 291.200 C 270.209 291.200,270.133 291.785,270.250 292.500 M230.000 293.200 C 230.000 293.640,230.160 294.000,230.356 294.000 C 230.552 294.000,230.822 294.630,230.956 295.400 C 231.090 296.170,231.310 297.430,231.444 298.200 C 231.578 298.970,231.829 299.600,232.002 299.600 C 232.174 299.600,232.176 298.979,232.005 298.220 C 231.833 297.461,231.788 296.745,231.904 296.630 C 232.019 296.514,231.924 296.190,231.693 295.910 C 231.461 295.629,231.145 294.725,230.991 293.900 C 230.697 292.323,230.000 291.831,230.000 293.200 M166.983 294.772 C 167.109 294.977,167.030 295.258,166.807 295.396 C 166.583 295.534,166.400 295.829,166.400 296.052 C 166.400 296.275,166.670 296.187,167.000 295.857 C 167.697 295.161,167.789 294.400,167.176 294.400 C 166.943 294.400,166.856 294.568,166.983 294.772 M271.200 296.971 C 271.200 297.317,271.380 297.600,271.600 297.600 C 271.820 297.600,272.000 298.194,272.000 298.920 C 272.000 299.646,272.165 300.411,272.366 300.620 C 272.568 300.829,272.813 301.450,272.912 302.000 C 273.062 302.838,273.100 302.790,273.146 301.700 C 273.175 300.985,273.020 300.400,272.800 300.400 C 272.580 300.400,272.400 299.757,272.400 298.971 C 272.400 298.186,272.130 297.273,271.800 296.943 C 271.267 296.410,271.200 296.413,271.200 296.971 M162.646 301.786 C 162.291 302.328,162.000 302.949,162.000 303.166 C 162.000 303.383,161.685 303.744,161.300 303.968 C 160.915 304.192,160.780 304.375,161.000 304.375 C 161.708 304.374,162.800 303.332,162.800 302.656 C 162.800 302.295,162.950 302.000,163.133 302.000 C 163.317 302.000,163.467 301.730,163.467 301.400 C 163.467 300.602,163.402 300.633,162.646 301.786 M232.400 301.976 C 232.400 302.429,232.580 302.800,232.800 302.800 C 233.020 302.800,233.200 302.541,233.200 302.224 C 233.200 301.907,233.020 301.536,232.800 301.400 C 232.580 301.264,232.400 301.523,232.400 301.976 M233.218 304.329 C 233.208 305.059,233.470 305.927,233.800 306.257 C 234.545 307.002,234.548 306.643,233.812 304.600 L 233.235 303.000 233.218 304.329 M273.100 303.865 C 273.375 303.976,273.603 304.457,273.606 304.933 C 273.609 305.410,273.885 306.520,274.220 307.400 L 274.827 309.000 274.595 307.600 C 273.956 303.757,273.903 303.600,273.256 303.632 C 272.841 303.652,272.784 303.737,273.100 303.865 M160.284 305.601 C 159.918 306.124,159.696 306.629,159.790 306.723 C 160.098 307.031,161.269 305.606,161.107 305.122 C 161.016 304.847,160.673 305.046,160.284 305.601 M234.006 307.900 C 234.003 308.395,234.180 308.800,234.400 308.800 C 234.901 308.800,234.901 308.376,234.400 307.600 C 234.086 307.115,234.011 307.172,234.006 307.900 M156.934 310.900 C 156.734 311.175,156.543 311.940,156.511 312.600 C 156.473 313.370,156.531 313.515,156.673 313.006 C 156.795 312.569,157.234 311.918,157.647 311.559 C 158.061 311.200,158.400 310.792,158.400 310.653 C 158.400 310.202,157.308 310.386,156.934 310.900 M155.311 314.100 C 155.098 314.375,154.812 314.915,154.675 315.300 C 154.537 315.685,154.179 316.000,153.879 316.000 C 153.579 316.000,153.333 316.262,153.333 316.582 C 153.333 316.903,153.468 317.082,153.633 316.980 C 153.797 316.878,154.032 317.021,154.154 317.298 C 154.282 317.585,154.339 317.517,154.288 317.138 C 154.240 316.774,154.577 316.144,155.037 315.738 C 155.498 315.332,155.873 314.685,155.870 314.300 C 155.866 313.466,155.815 313.448,155.311 314.100 M276.000 316.000 C 276.000 316.440,276.180 316.800,276.400 316.800 C 276.620 316.800,276.800 316.440,276.800 316.000 C 276.800 315.560,276.620 315.200,276.400 315.200 C 276.180 315.200,276.000 315.560,276.000 316.000 M152.857 318.363 C 152.455 318.613,152.436 318.775,152.784 318.990 C 153.333 319.329,153.745 319.029,153.542 318.438 C 153.458 318.196,153.176 318.165,152.857 318.363 M239.600 322.567 C 239.600 322.988,240.805 324.128,241.021 323.912 C 241.122 323.811,240.844 323.402,240.402 323.002 C 239.961 322.603,239.600 322.407,239.600 322.567 M242.282 326.394 C 242.595 327.588,243.420 328.125,243.491 327.180 C 243.524 326.752,243.219 326.224,242.814 326.008 C 242.198 325.678,242.112 325.741,242.282 326.394 M244.067 328.600 C 244.044 329.040,244.290 329.749,244.613 330.176 C 245.125 330.854,245.200 330.866,245.200 330.276 C 245.200 329.904,245.033 329.600,244.828 329.600 C 244.623 329.600,244.378 329.195,244.282 328.700 C 244.134 327.929,244.103 327.915,244.067 328.600 M246.643 332.232 C 246.511 332.577,246.659 333.116,246.973 333.430 C 247.703 334.160,248.000 334.152,248.000 333.400 C 248.000 333.070,247.809 332.800,247.576 332.800 C 247.343 332.800,247.256 332.632,247.383 332.428 C 247.509 332.223,247.449 331.954,247.248 331.830 C 247.048 331.706,246.775 331.887,246.643 332.232 M281.778 336.835 C 281.631 337.074,281.710 337.470,281.955 337.715 C 282.282 338.042,282.400 337.926,282.400 337.280 C 282.400 336.314,282.192 336.165,281.778 336.835 M140.600 338.936 C 139.364 340.496,138.832 342.004,139.800 341.200 C 140.130 340.926,140.400 340.454,140.400 340.151 C 140.400 339.848,140.561 339.600,140.757 339.600 C 140.954 339.600,141.218 339.330,141.345 339.000 C 141.623 338.275,141.155 338.235,140.600 338.936 M138.184 342.427 C 137.728 343.164,138.332 343.325,139.010 342.648 C 139.569 342.088,139.575 342.000,139.052 342.000 C 138.719 342.000,138.329 342.192,138.184 342.427 M254.400 343.829 C 254.400 344.441,255.304 345.600,255.782 345.600 C 255.913 345.600,255.741 345.060,255.400 344.400 C 254.709 343.064,254.400 342.887,254.400 343.829 M136.467 345.875 C 135.820 347.084,135.884 347.374,136.632 346.625 C 136.980 346.277,137.190 345.770,137.099 345.497 C 136.997 345.192,136.755 345.337,136.467 345.875 M133.802 350.398 C 133.403 350.839,133.207 351.200,133.367 351.200 C 133.788 351.200,134.928 349.995,134.712 349.779 C 134.611 349.678,134.202 349.956,133.802 350.398 M258.909 350.566 C 259.220 350.877,259.705 351.687,259.986 352.366 C 260.267 353.045,260.655 353.600,260.849 353.600 C 261.042 353.600,261.200 353.836,261.200 354.125 C 261.200 354.413,261.560 355.036,262.000 355.508 C 262.440 355.980,262.800 356.554,262.800 356.783 C 262.800 357.012,262.950 357.200,263.132 357.200 C 263.315 357.200,263.720 357.695,264.032 358.300 C 264.696 359.586,266.400 361.416,266.400 360.843 C 266.400 360.626,265.860 359.858,265.200 359.136 C 264.540 358.413,264.000 357.592,264.000 357.311 C 264.000 357.030,263.847 356.800,263.661 356.800 C 263.474 356.800,263.002 356.091,262.611 355.224 C 262.220 354.357,261.652 353.552,261.350 353.436 C 261.047 353.320,260.800 352.949,260.800 352.613 C 260.800 352.276,260.649 352.000,260.464 352.000 C 260.280 352.000,259.923 351.550,259.673 351.000 C 259.422 350.450,259.020 350.000,258.780 350.000 C 258.524 350.000,258.578 350.235,258.909 350.566 M285.700 352.207 C 285.700 353.645,286.272 353.813,286.313 352.386 C 286.331 351.734,286.201 351.200,286.023 351.200 C 285.845 351.200,285.700 351.653,285.700 352.207 M131.402 354.398 C 131.003 354.839,130.807 355.200,130.967 355.200 C 131.388 355.200,132.528 353.995,132.312 353.779 C 132.211 353.678,131.802 353.956,131.402 354.398 M286.606 355.300 C 286.646 355.795,286.481 356.332,286.239 356.494 C 285.961 356.680,286.034 356.790,286.439 356.794 C 286.876 356.798,287.089 356.421,287.112 355.600 C 287.131 354.940,287.009 354.400,286.840 354.400 C 286.672 354.400,286.566 354.805,286.606 355.300 M287.438 359.538 C 287.303 359.757,287.434 360.177,287.728 360.471 C 288.023 360.766,288.190 361.231,288.099 361.504 C 288.008 361.777,288.128 362.000,288.367 362.000 C 288.947 362.000,288.913 361.508,288.242 360.216 C 287.935 359.624,287.573 359.319,287.438 359.538 M266.800 362.229 C 266.800 362.354,267.070 362.727,267.400 363.057 C 268.051 363.708,268.133 363.611,267.757 362.633 C 267.529 362.038,266.800 361.730,266.800 362.229 M288.828 363.900 C 288.938 365.073,289.546 365.726,289.572 364.700 C 289.587 364.095,289.420 363.600,289.200 363.600 C 288.980 363.600,288.813 363.735,288.828 363.900 M289.200 366.951 C 289.200 367.034,289.470 367.326,289.800 367.600 C 290.291 368.008,290.400 367.980,290.400 367.449 C 290.400 367.092,290.130 366.800,289.800 366.800 C 289.470 366.800,289.200 366.868,289.200 366.951 M290.012 369.020 C 290.005 369.471,290.182 370.022,290.403 370.243 C 290.625 370.465,290.850 371.391,290.903 372.300 C 290.957 373.209,291.142 373.812,291.316 373.640 C 291.658 373.302,291.001 369.871,290.396 368.836 C 290.081 368.296,290.022 368.324,290.012 369.020 M271.600 369.429 C 271.600 369.727,272.675 370.800,272.975 370.800 C 273.102 370.800,272.982 370.440,272.707 370.000 C 272.238 369.249,271.600 368.920,271.600 369.429 M273.200 371.525 C 273.200 371.703,273.515 372.208,273.900 372.646 C 274.285 373.085,274.793 373.783,275.029 374.198 C 275.264 374.613,275.674 374.995,275.939 375.046 C 276.203 375.098,276.236 375.049,276.010 374.937 C 275.784 374.825,275.600 374.506,275.600 374.229 C 275.600 373.951,275.240 373.398,274.800 373.000 C 274.360 372.602,274.000 372.034,274.000 371.738 C 274.000 371.442,273.820 371.200,273.600 371.200 C 273.380 371.200,273.200 371.346,273.200 371.525 M277.238 377.500 C 277.533 377.885,277.825 378.275,277.887 378.367 C 277.949 378.458,278.000 378.143,278.000 377.667 C 278.000 377.134,277.750 376.800,277.351 376.800 C 276.796 376.800,276.779 376.901,277.238 377.500 M278.432 378.929 C 278.395 379.772,279.504 381.030,279.918 380.615 C 280.073 380.461,279.913 380.124,279.564 379.867 C 279.215 379.610,278.825 379.130,278.696 378.800 C 278.515 378.333,278.456 378.362,278.432 378.929 M280.000 381.552 C 280.000 381.830,280.270 382.327,280.600 382.657 C 281.367 383.424,281.358 382.842,280.587 381.824 C 280.258 381.388,280.000 381.269,280.000 381.552 M281.600 384.112 C 281.600 384.393,281.960 384.883,282.400 385.200 C 282.840 385.517,283.200 385.962,283.200 386.188 C 283.201 386.415,283.651 387.123,284.200 387.762 C 284.750 388.401,285.200 388.738,285.200 388.511 C 285.200 388.284,284.930 387.874,284.600 387.600 C 284.270 387.326,284.000 386.882,284.000 386.613 C 284.000 386.344,283.640 385.798,283.200 385.400 C 282.760 385.002,282.400 384.434,282.400 384.138 C 282.400 383.842,282.220 383.600,282.000 383.600 C 281.780 383.600,281.600 383.830,281.600 384.112 M285.606 389.500 C 285.603 389.995,285.780 390.400,286.000 390.400 C 286.501 390.400,286.501 389.976,286.000 389.200 C 285.686 388.715,285.611 388.772,285.606 389.500 M288.800 394.304 C 288.800 394.471,289.164 394.835,289.609 395.113 C 290.359 395.581,290.381 395.559,289.913 394.809 C 289.409 394.003,288.800 393.726,288.800 394.304 " stroke="none" fill="#046cf4" fill-rule="evenodd"></path></g></svg>