<svg id="svg" version="1.1" xmlns="http://www.w3.org/2000/svg" xmlns:xlink="http://www.w3.org/1999/xlink" width="400" height="400" viewBox="0, 0, 400,400"><g id="svgg"><path id="path0" d="M128.800 200.800 C 128.800 286.820,128.950 357.200,129.132 357.200 C 129.315 357.200,129.715 356.705,130.020 356.100 C 130.326 355.495,131.076 354.248,131.688 353.328 C 132.299 352.408,132.800 351.541,132.800 351.400 C 132.800 351.259,133.340 350.359,134.000 349.400 C 134.660 348.441,135.200 347.579,135.200 347.486 C 135.200 347.392,137.990 342.677,141.400 337.006 C 144.810 331.336,147.600 326.613,147.600 326.510 C 147.600 326.408,147.939 325.846,148.353 325.262 C 148.767 324.678,149.461 323.570,149.895 322.800 C 150.329 322.030,153.261 317.080,156.410 311.800 C 159.558 306.520,163.635 299.685,165.467 296.612 L 168.800 291.024 168.800 256.349 L 168.800 221.675 171.300 220.860 C 175.827 219.385,184.585 216.364,185.400 215.995 C 185.840 215.796,187.550 215.184,189.200 214.635 C 190.850 214.086,195.828 212.381,200.263 210.846 L 208.326 208.055 208.745 209.128 C 209.223 210.348,209.757 212.278,211.808 220.200 C 213.496 226.721,215.124 232.891,215.606 234.600 C 216.194 236.685,217.650 242.144,218.005 243.600 C 218.193 244.370,218.551 245.720,218.800 246.600 C 219.049 247.480,219.407 248.830,219.595 249.600 C 219.783 250.370,220.297 252.350,220.738 254.000 C 221.179 255.650,221.990 258.710,222.540 260.800 C 223.091 262.890,224.621 268.650,225.940 273.600 C 229.440 286.731,230.351 290.165,231.463 294.400 C 232.884 299.813,234.002 304.009,234.392 305.400 C 235.206 308.302,237.317 316.290,237.511 317.200 C 237.627 317.750,240.067 321.620,242.932 325.800 C 245.798 329.980,250.663 337.090,253.745 341.600 C 256.826 346.110,260.619 351.654,262.174 353.919 C 267.345 361.455,272.989 369.737,276.812 375.400 C 278.892 378.480,280.700 381.090,280.830 381.200 C 280.960 381.310,283.254 384.640,285.927 388.600 C 293.723 400.149,292.681 398.981,295.317 399.120 C 297.528 399.236,298.463 398.581,297.200 397.800 C 296.980 397.664,296.800 397.171,296.800 396.705 C 296.800 396.238,296.632 395.304,296.427 394.628 C 296.222 393.953,295.877 392.680,295.660 391.800 C 295.260 390.174,294.565 387.571,293.954 385.400 C 293.528 383.891,290.537 371.873,289.723 368.400 C 289.387 366.970,288.966 365.440,288.787 365.000 C 288.607 364.560,288.349 363.660,288.212 363.000 C 287.911 361.540,287.406 359.538,286.800 357.400 C 286.194 355.262,285.689 353.260,285.388 351.800 C 285.251 351.140,284.987 350.240,284.800 349.800 C 284.613 349.360,284.349 348.460,284.212 347.800 C 284.076 347.140,283.800 345.970,283.600 345.200 C 283.400 344.430,283.124 343.260,282.988 342.600 C 282.851 341.940,282.587 341.040,282.400 340.600 C 282.213 340.160,281.949 339.260,281.812 338.600 C 281.676 337.940,281.400 336.770,281.200 336.000 C 281.000 335.230,280.724 334.060,280.588 333.400 C 280.451 332.740,280.187 331.840,280.000 331.400 C 279.813 330.960,279.549 330.060,279.412 329.400 C 279.073 327.760,278.807 326.700,276.202 316.600 C 272.620 302.716,271.605 298.812,270.742 295.600 C 269.945 292.630,269.605 291.303,268.845 288.200 C 268.629 287.320,268.249 285.880,268.000 285.000 C 267.751 284.120,267.379 282.725,267.173 281.900 C 266.968 281.075,266.632 279.725,266.427 278.900 C 266.221 278.075,265.849 276.680,265.600 275.800 C 265.351 274.920,264.993 273.570,264.805 272.800 C 264.617 272.030,264.075 269.960,263.600 268.200 C 263.125 266.440,262.589 264.370,262.408 263.600 C 262.228 262.830,261.443 259.770,260.665 256.800 C 259.887 253.830,258.324 247.800,257.192 243.400 C 256.060 239.000,254.801 234.140,254.393 232.600 C 253.986 231.060,253.089 227.640,252.401 225.000 C 250.835 218.989,249.103 212.351,247.549 206.400 C 245.568 198.813,244.810 195.814,244.805 195.543 C 244.798 195.202,246.716 194.449,256.000 191.141 C 260.290 189.612,264.160 188.199,264.600 188.000 C 265.040 187.802,266.120 187.402,267.000 187.113 C 270.278 186.034,269.937 189.333,270.249 155.748 C 270.403 139.228,270.409 125.400,270.263 125.020 C 269.972 124.261,270.702 123.732,261.200 131.582 C 258.670 133.672,256.510 135.480,256.400 135.600 C 256.290 135.720,252.971 138.514,249.024 141.809 C 245.077 145.104,239.227 149.995,236.024 152.677 L 230.200 157.554 224.400 159.576 C 212.708 163.652,205.694 166.076,201.200 167.592 C 198.670 168.446,192.100 170.701,186.600 172.603 C 174.549 176.771,169.650 178.400,169.164 178.400 C 168.947 178.400,168.800 159.520,168.800 131.798 L 168.800 85.195 199.300 85.298 L 229.800 85.400 229.800 108.666 C 229.800 121.463,229.911 132.044,230.047 132.180 C 230.340 132.473,231.354 131.660,247.200 118.430 C 265.349 103.278,269.375 99.881,269.642 99.492 C 270.125 98.791,270.327 45.019,269.849 44.706 C 269.602 44.544,237.765 44.409,199.100 44.406 L 128.800 44.400 128.800 200.800 " stroke="none" fill="#0474f4" fill-rule="evenodd"></path><path id="path1" d="M42.700 0.290 C 41.875 0.377,41.200 0.617,41.200 0.824 C 41.200 1.031,40.660 1.200,40.000 1.200 C 39.340 1.200,38.800 1.380,38.800 1.600 C 38.800 1.820,38.260 2.000,37.600 2.000 C 36.940 2.000,36.400 2.180,36.400 2.400 C 36.400 2.620,35.860 2.800,35.200 2.800 C 34.540 2.800,33.999 2.935,33.997 3.100 C 33.993 3.459,32.056 4.400,31.320 4.400 C 31.034 4.400,30.800 4.536,30.800 4.702 C 30.800 4.869,30.215 5.264,29.500 5.580 C 28.785 5.897,27.851 6.480,27.425 6.878 C 26.998 7.275,26.413 7.600,26.125 7.600 C 25.836 7.600,25.600 7.780,25.600 8.000 C 25.600 8.220,25.283 8.400,24.896 8.400 C 24.509 8.400,23.707 8.850,23.113 9.400 C 22.520 9.950,21.878 10.400,21.687 10.400 C 21.232 10.400,10.400 21.232,10.400 21.687 C 10.400 21.878,9.950 22.520,9.400 23.113 C 8.850 23.707,8.400 24.509,8.400 24.896 C 8.400 25.283,8.220 25.600,8.000 25.600 C 7.780 25.600,7.600 25.836,7.600 26.125 C 7.600 26.413,7.275 26.998,6.878 27.425 C 6.480 27.851,5.897 28.785,5.580 29.500 C 5.264 30.215,4.869 30.800,4.702 30.800 C 4.536 30.800,4.400 31.034,4.400 31.320 C 4.400 32.056,3.459 33.993,3.100 33.997 C 2.935 33.999,2.800 34.540,2.800 35.200 C 2.800 35.860,2.620 36.400,2.400 36.400 C 2.180 36.400,2.000 36.940,2.000 37.600 C 2.000 38.260,1.820 38.800,1.600 38.800 C 1.380 38.800,1.200 39.325,1.200 39.967 C 1.200 40.608,0.975 41.208,0.700 41.300 C -0.036 41.545,-0.036 358.455,0.700 358.700 C 0.975 358.792,1.200 359.392,1.200 360.033 C 1.200 360.675,1.380 361.200,1.600 361.200 C 1.820 361.200,2.000 361.740,2.000 362.400 C 2.000 363.060,2.180 363.600,2.400 363.600 C 2.620 363.600,2.800 364.140,2.800 364.800 C 2.800 365.460,2.980 366.000,3.200 366.000 C 3.420 366.000,3.600 366.345,3.600 366.767 C 3.600 367.188,3.735 367.593,3.900 367.667 C 4.298 367.843,6.000 371.147,6.000 371.742 C 6.000 371.998,6.360 372.432,6.800 372.707 C 7.240 372.982,7.600 373.565,7.600 374.003 C 7.600 374.442,7.780 374.800,8.000 374.800 C 8.220 374.800,8.400 375.027,8.400 375.304 C 8.400 375.581,8.850 376.293,9.400 376.887 C 9.950 377.480,10.400 378.243,10.400 378.583 C 10.400 378.922,10.670 379.200,11.000 379.200 C 11.330 379.200,11.600 379.353,11.600 379.540 C 11.600 380.068,21.248 389.600,21.782 389.600 C 22.043 389.600,22.647 390.050,23.125 390.600 C 23.603 391.150,24.279 391.600,24.626 391.600 C 25.373 391.600,26.470 392.597,26.114 392.952 C 25.978 393.089,26.357 393.200,26.957 393.200 C 27.582 393.200,27.942 393.371,27.800 393.600 C 27.664 393.820,27.923 394.000,28.376 394.000 C 28.829 394.000,29.200 394.180,29.200 394.400 C 29.200 394.620,29.560 394.800,30.000 394.800 C 30.440 394.800,30.800 394.980,30.800 395.200 C 30.800 395.420,31.034 395.600,31.320 395.600 C 32.056 395.600,33.993 396.541,33.997 396.900 C 33.999 397.065,34.540 397.200,35.200 397.200 C 35.860 397.200,36.400 397.380,36.400 397.600 C 36.400 397.820,36.940 398.000,37.600 398.000 C 38.260 398.000,38.800 398.180,38.800 398.400 C 38.800 398.620,39.325 398.800,39.967 398.800 C 40.608 398.800,41.208 399.025,41.300 399.300 C 41.545 400.036,358.455 400.036,358.700 399.300 C 358.792 399.025,359.392 398.800,360.033 398.800 C 360.675 398.800,361.200 398.620,361.200 398.400 C 361.200 398.180,361.740 398.000,362.400 398.000 C 363.060 398.000,363.600 397.820,363.600 397.600 C 363.600 397.380,364.140 397.200,364.800 397.200 C 365.460 397.200,366.001 397.065,366.003 396.900 C 366.007 396.541,367.944 395.600,368.680 395.600 C 368.966 395.600,369.200 395.420,369.200 395.200 C 369.200 394.980,369.560 394.800,370.000 394.800 C 370.440 394.800,370.800 394.620,370.800 394.400 C 370.800 394.180,371.160 394.000,371.600 394.000 C 372.040 394.000,372.400 393.820,372.400 393.600 C 372.400 393.380,372.771 393.200,373.224 393.200 C 373.677 393.200,373.936 393.020,373.800 392.800 C 373.664 392.580,373.833 392.400,374.176 392.400 C 374.519 392.400,374.800 392.220,374.800 392.000 C 374.800 391.780,375.062 391.600,375.382 391.600 C 375.702 391.600,376.414 391.150,376.964 390.600 C 377.514 390.050,378.147 389.600,378.371 389.600 C 378.903 389.600,389.600 378.903,389.600 378.371 C 389.600 378.147,390.050 377.514,390.600 376.964 C 391.150 376.414,391.600 375.702,391.600 375.382 C 391.600 375.062,391.780 374.800,392.000 374.800 C 392.220 374.800,392.400 374.519,392.400 374.176 C 392.400 373.833,392.580 373.664,392.800 373.800 C 393.020 373.936,393.200 373.677,393.200 373.224 C 393.200 372.771,393.380 372.400,393.600 372.400 C 393.820 372.400,394.000 372.040,394.000 371.600 C 394.000 371.160,394.180 370.800,394.400 370.800 C 394.620 370.800,394.800 370.440,394.800 370.000 C 394.800 369.560,394.980 369.200,395.200 369.200 C 395.420 369.200,395.600 368.966,395.600 368.680 C 395.600 367.944,396.541 366.007,396.900 366.003 C 397.065 366.001,397.200 365.460,397.200 364.800 C 397.200 364.140,397.380 363.600,397.600 363.600 C 397.820 363.600,398.000 363.060,398.000 362.400 C 398.000 361.740,398.180 361.200,398.400 361.200 C 398.620 361.200,398.800 360.675,398.800 360.033 C 398.800 359.392,399.025 358.792,399.300 358.700 C 400.036 358.455,400.036 41.545,399.300 41.300 C 399.025 41.208,398.800 40.608,398.800 39.967 C 398.800 39.325,398.620 38.800,398.400 38.800 C 398.180 38.800,398.000 38.260,398.000 37.600 C 398.000 36.940,397.820 36.400,397.600 36.400 C 397.380 36.400,397.200 35.860,397.200 35.200 C 397.200 34.540,397.065 33.999,396.900 33.997 C 396.541 33.993,395.600 32.056,395.600 31.320 C 395.600 31.034,395.420 30.800,395.200 30.800 C 394.980 30.800,394.800 30.440,394.800 30.000 C 394.800 29.560,394.620 29.200,394.400 29.200 C 394.180 29.200,394.000 28.829,394.000 28.376 C 394.000 27.923,393.836 27.654,393.635 27.779 C 393.434 27.903,393.030 27.464,392.737 26.802 C 392.444 26.141,392.069 25.600,391.902 25.600 C 391.736 25.600,391.600 25.239,391.600 24.797 C 391.600 24.356,391.150 23.603,390.600 23.125 C 390.050 22.647,389.600 22.043,389.600 21.782 C 389.600 21.248,380.068 11.600,379.540 11.600 C 379.353 11.600,379.200 11.330,379.200 11.000 C 379.200 10.670,378.922 10.400,378.583 10.400 C 378.243 10.400,377.480 9.950,376.887 9.400 C 376.293 8.850,375.581 8.400,375.304 8.400 C 375.027 8.400,374.800 8.220,374.800 8.000 C 374.800 7.780,374.442 7.600,374.003 7.600 C 373.565 7.600,372.982 7.240,372.707 6.800 C 372.432 6.360,371.998 6.000,371.742 6.000 C 371.147 6.000,367.843 4.298,367.667 3.900 C 367.593 3.735,367.188 3.600,366.767 3.600 C 366.345 3.600,366.000 3.420,366.000 3.200 C 366.000 2.980,365.460 2.800,364.800 2.800 C 364.140 2.800,363.600 2.620,363.600 2.400 C 363.600 2.180,363.060 2.000,362.400 2.000 C 361.740 2.000,361.200 1.820,361.200 1.600 C 361.200 1.380,360.675 1.200,360.033 1.200 C 359.392 1.200,358.792 0.975,358.700 0.700 C 358.542 0.227,47.119 -0.178,42.700 0.290 M269.849 44.706 C 270.327 45.019,270.125 98.791,269.642 99.492 C 269.375 99.881,265.349 103.278,247.200 118.430 C 231.354 131.660,230.340 132.473,230.047 132.180 C 229.911 132.044,229.800 121.463,229.800 108.666 L 229.800 85.400 199.300 85.298 L 168.800 85.195 168.800 131.798 C 168.800 159.520,168.947 178.400,169.164 178.400 C 169.650 178.400,174.549 176.771,186.600 172.603 C 192.100 170.701,198.670 168.446,201.200 167.592 C 205.694 166.076,212.708 163.652,224.400 159.576 L 230.200 157.554 236.024 152.677 C 239.227 149.995,245.077 145.104,249.024 141.809 C 252.971 138.514,256.290 135.720,256.400 135.600 C 256.510 135.480,258.670 133.672,261.200 131.582 C 270.702 123.732,269.972 124.261,270.263 125.020 C 270.409 125.400,270.403 139.228,270.249 155.748 C 269.937 189.333,270.278 186.034,267.000 187.113 C 266.120 187.402,265.040 187.802,264.600 188.000 C 264.160 188.199,260.290 189.612,256.000 191.141 C 246.716 194.449,244.798 195.202,244.805 195.543 C 244.810 195.814,245.568 198.813,247.549 206.400 C 249.103 212.351,250.835 218.989,252.401 225.000 C 253.089 227.640,253.986 231.060,254.393 232.600 C 254.801 234.140,256.060 239.000,257.192 243.400 C 258.324 247.800,259.887 253.830,260.665 256.800 C 261.443 259.770,262.228 262.830,262.408 263.600 C 262.589 264.370,263.125 266.440,263.600 268.200 C 264.075 269.960,264.617 272.030,264.805 272.800 C 264.993 273.570,265.351 274.920,265.600 275.800 C 265.849 276.680,266.221 278.075,266.427 278.900 C 266.632 279.725,266.968 281.075,267.173 281.900 C 267.379 282.725,267.751 284.120,268.000 285.000 C 268.249 285.880,268.629 287.320,268.845 288.200 C 269.605 291.303,269.945 292.630,270.742 295.600 C 273.054 304.210,278.983 327.321,279.412 329.400 C 279.549 330.060,279.813 330.960,280.000 331.400 C 280.187 331.840,280.451 332.740,280.588 333.400 C 280.724 334.060,281.000 335.230,281.200 336.000 C 281.400 336.770,281.676 337.940,281.812 338.600 C 281.949 339.260,282.213 340.160,282.400 340.600 C 282.587 341.040,282.851 341.940,282.988 342.600 C 283.124 343.260,283.400 344.430,283.600 345.200 C 283.800 345.970,284.076 347.140,284.212 347.800 C 284.349 348.460,284.613 349.360,284.800 349.800 C 284.987 350.240,285.251 351.140,285.388 351.800 C 285.689 353.260,286.194 355.262,286.800 357.400 C 287.406 359.538,287.911 361.540,288.212 363.000 C 288.349 363.660,288.607 364.560,288.787 365.000 C 288.966 365.440,289.387 366.970,289.723 368.400 C 290.537 371.873,293.528 383.891,293.954 385.400 C 294.565 387.571,295.260 390.174,295.660 391.800 C 295.877 392.680,296.222 393.953,296.427 394.628 C 296.632 395.304,296.800 396.238,296.800 396.705 C 296.800 397.171,296.980 397.664,297.200 397.800 C 298.463 398.581,297.528 399.236,295.317 399.120 C 292.681 398.981,293.723 400.149,285.927 388.600 C 283.254 384.640,280.960 381.310,280.830 381.200 C 280.700 381.090,278.892 378.480,276.812 375.400 C 272.989 369.737,267.345 361.455,262.174 353.919 C 260.619 351.654,256.826 346.110,253.745 341.600 C 250.663 337.090,245.798 329.980,242.932 325.800 C 240.067 321.620,237.627 317.750,237.511 317.200 C 237.317 316.290,235.206 308.302,234.392 305.400 C 234.002 304.009,232.884 299.813,231.463 294.400 C 230.351 290.165,229.440 286.731,225.940 273.600 C 224.621 268.650,223.091 262.890,222.540 260.800 C 221.990 258.710,221.179 255.650,220.738 254.000 C 220.297 252.350,219.783 250.370,219.595 249.600 C 219.407 248.830,219.049 247.480,218.800 246.600 C 218.551 245.720,218.193 244.370,218.005 243.600 C 217.650 242.144,216.194 236.685,215.606 234.600 C 215.124 232.891,213.496 226.721,211.808 220.200 C 209.757 212.278,209.223 210.348,208.745 209.128 L 208.326 208.055 200.263 210.846 C 195.828 212.381,190.850 214.086,189.200 214.635 C 187.550 215.184,185.840 215.796,185.400 215.995 C 184.585 216.364,175.827 219.385,171.300 220.860 L 168.800 221.675 168.800 256.349 L 168.800 291.024 165.467 296.612 C 163.635 299.685,159.558 306.520,156.410 311.800 C 153.261 317.080,150.329 322.030,149.895 322.800 C 149.461 323.570,148.767 324.678,148.353 325.262 C 147.939 325.846,147.600 326.408,147.600 326.510 C 147.600 326.613,144.810 331.336,141.400 337.006 C 137.990 342.677,135.200 347.392,135.200 347.486 C 135.200 347.579,134.660 348.441,134.000 349.400 C 133.340 350.359,132.800 351.259,132.800 351.400 C 132.800 351.541,132.299 352.408,131.688 353.328 C 131.076 354.248,130.326 355.495,130.020 356.100 C 129.715 356.705,129.315 357.200,129.132 357.200 C 128.950 357.200,128.800 286.820,128.800 200.800 L 128.800 44.400 199.100 44.406 C 237.765 44.409,269.602 44.544,269.849 44.706 " stroke="none" fill="#fbfbfc" fill-rule="evenodd"></path></g></svg>