<svg id="svg" version="1.1" xmlns="http://www.w3.org/2000/svg" xmlns:xlink="http://www.w3.org/1999/xlink" width="400" height="400" viewBox="0, 0, 400,400"><g id="svgg"><path id="path0" d="M128.800 200.800 C 128.800 286.820,128.935 357.197,129.100 357.194 C 129.265 357.191,129.891 356.336,130.492 355.294 C 132.790 351.305,133.720 349.764,134.447 348.738 C 134.861 348.154,135.200 347.595,135.200 347.496 C 135.200 347.397,137.990 342.677,141.400 337.006 C 144.810 331.336,147.600 326.613,147.600 326.510 C 147.600 326.408,147.939 325.846,148.353 325.262 C 148.767 324.678,149.461 323.570,149.895 322.800 C 150.329 322.030,153.261 317.080,156.410 311.800 C 159.558 306.520,163.635 299.685,165.467 296.612 L 168.800 291.024 168.800 256.349 L 168.800 221.675 171.300 220.864 C 172.675 220.418,176.410 219.127,179.600 217.995 C 182.790 216.863,186.390 215.603,187.600 215.195 C 188.810 214.787,193.490 213.163,198.000 211.586 C 207.903 208.124,208.346 207.987,208.550 208.329 C 208.751 208.667,209.986 213.125,211.617 219.400 C 212.303 222.040,213.225 225.550,213.664 227.200 C 214.104 228.850,214.617 230.830,214.805 231.600 C 214.993 232.370,215.326 233.630,215.546 234.400 C 215.765 235.170,216.317 237.195,216.772 238.900 C 217.228 240.605,217.948 243.305,218.374 244.900 C 218.800 246.495,219.713 249.960,220.403 252.600 C 221.094 255.240,221.837 258.030,222.056 258.800 C 222.274 259.570,222.603 260.830,222.787 261.600 C 222.970 262.370,223.510 264.440,223.987 266.200 C 225.489 271.752,228.009 281.234,229.195 285.800 C 229.824 288.220,230.712 291.595,231.169 293.300 C 231.626 295.005,232.373 297.795,232.830 299.500 C 233.286 301.205,233.931 303.590,234.261 304.800 C 235.232 308.350,236.402 312.807,237.097 315.600 C 237.736 318.169,238.476 319.394,245.550 329.600 C 246.541 331.030,249.807 335.800,252.806 340.200 C 255.805 344.600,259.596 350.139,261.230 352.510 C 265.790 359.128,275.777 373.801,278.306 377.600 C 279.551 379.470,280.683 381.090,280.820 381.200 C 280.958 381.310,282.570 383.650,284.401 386.400 C 286.232 389.150,287.881 391.460,288.065 391.533 C 288.249 391.607,288.400 391.900,288.400 392.184 C 288.400 392.469,288.689 392.942,289.042 393.235 C 289.395 393.527,289.845 394.135,290.043 394.584 C 291.374 397.603,292.999 398.997,295.331 399.120 C 297.496 399.234,298.464 398.581,297.244 397.827 C 297.049 397.706,296.792 397.021,296.673 396.304 C 296.423 394.792,296.000 393.048,294.801 388.600 C 294.327 386.840,293.780 384.680,293.585 383.800 C 293.391 382.920,293.039 381.570,292.802 380.800 C 292.565 380.030,292.098 378.230,291.764 376.800 C 290.895 373.086,290.573 371.805,289.600 368.200 C 289.125 366.440,288.563 364.280,288.350 363.400 C 287.732 360.842,287.286 359.115,286.800 357.400 C 286.194 355.262,285.689 353.260,285.388 351.800 C 285.251 351.140,284.987 350.240,284.800 349.800 C 284.613 349.360,284.349 348.460,284.212 347.800 C 284.076 347.140,283.800 345.970,283.600 345.200 C 283.400 344.430,283.124 343.260,282.988 342.600 C 282.851 341.940,282.587 341.040,282.400 340.600 C 282.213 340.160,281.949 339.260,281.812 338.600 C 281.511 337.140,281.006 335.138,280.400 333.000 C 280.151 332.120,279.779 330.725,279.573 329.900 C 279.368 329.075,279.032 327.725,278.827 326.900 C 278.621 326.075,278.249 324.680,278.000 323.800 C 277.751 322.920,277.401 321.570,277.223 320.800 C 277.045 320.030,275.870 315.440,274.611 310.600 C 273.352 305.760,272.174 301.170,271.993 300.400 C 271.812 299.630,271.275 297.560,270.800 295.800 C 269.950 292.651,269.621 291.369,268.845 288.200 C 268.629 287.320,268.249 285.880,268.000 285.000 C 267.751 284.120,267.379 282.725,267.173 281.900 C 266.968 281.075,266.632 279.725,266.427 278.900 C 266.221 278.075,265.849 276.680,265.600 275.800 C 265.351 274.920,264.991 273.570,264.800 272.800 C 264.609 272.030,264.249 270.680,264.000 269.800 C 263.487 267.988,263.010 266.134,262.458 263.800 C 262.250 262.920,261.329 259.320,260.413 255.800 C 259.496 252.280,258.113 246.970,257.340 244.000 C 256.567 241.030,255.575 237.250,255.136 235.600 C 254.696 233.950,254.186 231.970,254.002 231.200 C 253.634 229.665,251.613 221.930,250.342 217.200 C 249.899 215.550,249.386 213.570,249.202 212.800 C 249.017 212.030,248.300 209.240,247.607 206.600 C 245.662 199.185,244.810 195.824,244.805 195.543 C 244.799 195.230,246.729 194.440,253.000 192.185 C 255.640 191.235,259.330 189.891,261.200 189.197 C 263.070 188.503,265.500 187.634,266.600 187.265 C 267.700 186.897,268.899 186.417,269.263 186.198 C 269.968 185.775,270.907 125.944,270.226 124.842 C 270.032 124.529,269.263 124.932,267.869 126.079 C 261.752 131.111,256.576 135.408,256.400 135.600 C 256.290 135.719,252.976 138.513,249.036 141.809 C 245.096 145.104,239.246 149.999,236.036 152.686 C 231.692 156.323,229.638 157.771,228.000 158.350 C 226.790 158.779,221.840 160.490,217.000 162.154 C 212.160 163.817,205.050 166.268,201.200 167.600 C 177.502 175.800,169.786 178.400,169.151 178.400 C 168.952 178.400,168.800 158.259,168.800 131.798 L 168.800 85.195 199.300 85.298 L 229.800 85.400 229.850 108.716 C 229.877 121.540,229.988 132.121,230.097 132.230 C 230.329 132.462,232.116 131.033,243.600 121.430 C 258.243 109.187,269.391 99.868,269.600 99.697 C 270.009 99.363,270.207 45.005,269.800 44.706 C 269.580 44.544,237.765 44.409,199.100 44.406 L 128.800 44.400 128.800 200.800 " stroke="none" fill="#0473f3" fill-rule="evenodd"></path><path id="path1" d="M40.100 0.288 C 39.385 0.377,38.800 0.619,38.800 0.825 C 38.800 1.031,38.260 1.200,37.600 1.200 C 36.940 1.200,36.400 1.380,36.400 1.600 C 36.400 1.820,35.860 2.000,35.200 2.000 C 34.540 2.000,34.000 2.180,34.000 2.400 C 34.000 2.620,33.640 2.800,33.200 2.800 C 32.760 2.800,32.400 2.980,32.400 3.200 C 32.400 3.420,32.040 3.600,31.600 3.600 C 31.160 3.600,30.800 3.780,30.800 4.000 C 30.800 4.220,30.440 4.400,30.000 4.400 C 29.560 4.400,29.200 4.580,29.200 4.800 C 29.200 5.020,28.880 5.200,28.488 5.200 C 28.097 5.200,27.517 5.560,27.200 6.000 C 26.883 6.440,26.393 6.800,26.112 6.800 C 25.830 6.800,25.600 6.980,25.600 7.200 C 25.600 7.420,25.322 7.600,24.983 7.600 C 24.643 7.600,23.880 8.050,23.287 8.600 C 22.693 9.150,21.980 9.600,21.701 9.600 C 21.038 9.600,9.600 21.038,9.600 21.701 C 9.600 21.980,9.150 22.693,8.600 23.287 C 8.050 23.880,7.600 24.643,7.600 24.983 C 7.600 25.322,7.420 25.600,7.200 25.600 C 6.980 25.600,6.800 25.830,6.800 26.112 C 6.800 26.393,6.440 26.883,6.000 27.200 C 5.560 27.517,5.200 28.097,5.200 28.488 C 5.200 28.880,5.020 29.200,4.800 29.200 C 4.580 29.200,4.400 29.560,4.400 30.000 C 4.400 30.440,4.220 30.800,4.000 30.800 C 3.780 30.800,3.600 31.160,3.600 31.600 C 3.600 32.040,3.420 32.400,3.200 32.400 C 2.980 32.400,2.800 32.760,2.800 33.200 C 2.800 33.640,2.620 34.000,2.400 34.000 C 2.180 34.000,2.000 34.540,2.000 35.200 C 2.000 35.860,1.820 36.400,1.600 36.400 C 1.380 36.400,1.200 36.925,1.200 37.567 C 1.200 38.208,0.975 38.808,0.700 38.900 C -0.036 39.145,-0.036 360.855,0.700 361.100 C 0.975 361.192,1.200 361.792,1.200 362.433 C 1.200 363.075,1.380 363.600,1.600 363.600 C 1.820 363.600,2.000 364.140,2.000 364.800 C 2.000 365.460,2.180 366.000,2.400 366.000 C 2.620 366.000,2.800 366.360,2.800 366.800 C 2.800 367.240,2.980 367.600,3.200 367.600 C 3.420 367.600,3.600 367.960,3.600 368.400 C 3.600 368.840,3.780 369.200,4.000 369.200 C 4.220 369.200,4.400 369.560,4.400 370.000 C 4.400 370.440,4.580 370.800,4.800 370.800 C 5.020 370.800,5.200 371.120,5.200 371.512 C 5.200 371.903,5.560 372.483,6.000 372.800 C 6.440 373.117,6.800 373.697,6.800 374.088 C 6.800 374.480,6.980 374.800,7.200 374.800 C 7.420 374.800,7.600 374.988,7.600 375.217 C 7.600 375.447,8.050 376.120,8.600 376.713 C 9.150 377.307,9.600 378.020,9.600 378.299 C 9.600 378.962,21.038 390.400,21.701 390.400 C 21.980 390.400,22.693 390.850,23.287 391.400 C 23.880 391.950,24.631 392.400,24.956 392.400 C 25.280 392.400,25.660 392.760,25.800 393.200 C 25.940 393.640,26.402 394.000,26.827 394.000 C 27.252 394.000,27.600 394.180,27.600 394.400 C 27.600 394.620,27.960 394.800,28.400 394.800 C 28.840 394.800,29.200 394.980,29.200 395.200 C 29.200 395.420,29.560 395.600,30.000 395.600 C 30.440 395.600,30.800 395.780,30.800 396.000 C 30.800 396.220,31.160 396.400,31.600 396.400 C 32.040 396.400,32.400 396.580,32.400 396.800 C 32.400 397.020,32.760 397.200,33.200 397.200 C 33.640 397.200,34.000 397.380,34.000 397.600 C 34.000 397.820,34.540 398.000,35.200 398.000 C 35.860 398.000,36.400 398.180,36.400 398.400 C 36.400 398.620,36.925 398.800,37.567 398.800 C 38.208 398.800,38.808 399.025,38.900 399.300 C 39.145 400.036,360.855 400.036,361.100 399.300 C 361.192 399.025,361.792 398.800,362.433 398.800 C 363.075 398.800,363.600 398.620,363.600 398.400 C 363.600 398.180,364.140 398.000,364.800 398.000 C 365.460 398.000,366.000 397.820,366.000 397.600 C 366.000 397.380,366.360 397.200,366.800 397.200 C 367.240 397.200,367.600 397.020,367.600 396.800 C 367.600 396.580,367.960 396.400,368.400 396.400 C 368.840 396.400,369.200 396.220,369.200 396.000 C 369.200 395.780,369.560 395.600,370.000 395.600 C 370.440 395.600,370.800 395.420,370.800 395.200 C 370.800 394.980,371.160 394.800,371.600 394.800 C 372.040 394.800,372.400 394.620,372.400 394.400 C 372.400 394.180,372.720 394.000,373.112 394.000 C 373.503 394.000,374.083 393.640,374.400 393.200 C 374.717 392.760,375.130 392.400,375.317 392.400 C 375.504 392.400,375.908 392.175,376.215 391.900 C 377.540 390.712,377.991 390.400,378.387 390.400 C 378.943 390.400,390.400 378.932,390.400 378.375 C 390.400 378.137,390.625 377.692,390.900 377.385 C 392.045 376.108,392.400 375.616,392.400 375.305 C 392.400 375.124,392.760 374.717,393.200 374.400 C 393.640 374.083,394.000 373.503,394.000 373.112 C 394.000 372.720,394.180 372.400,394.400 372.400 C 394.620 372.400,394.800 372.040,394.800 371.600 C 394.800 371.160,394.980 370.800,395.200 370.800 C 395.420 370.800,395.600 370.440,395.600 370.000 C 395.600 369.560,395.780 369.200,396.000 369.200 C 396.220 369.200,396.400 368.840,396.400 368.400 C 396.400 367.960,396.580 367.600,396.800 367.600 C 397.020 367.600,397.200 367.240,397.200 366.800 C 397.200 366.360,397.380 366.000,397.600 366.000 C 397.820 366.000,398.000 365.460,398.000 364.800 C 398.000 364.140,398.180 363.600,398.400 363.600 C 398.620 363.600,398.800 363.075,398.800 362.433 C 398.800 361.792,399.025 361.192,399.300 361.100 C 400.036 360.855,400.036 39.145,399.300 38.900 C 399.025 38.808,398.800 38.208,398.800 37.567 C 398.800 36.925,398.620 36.400,398.400 36.400 C 398.180 36.400,398.000 35.860,398.000 35.200 C 398.000 34.540,397.820 34.000,397.600 34.000 C 397.380 34.000,397.200 33.640,397.200 33.200 C 397.200 32.760,397.020 32.400,396.800 32.400 C 396.580 32.400,396.400 32.040,396.400 31.600 C 396.400 31.160,396.220 30.800,396.000 30.800 C 395.780 30.800,395.600 30.440,395.600 30.000 C 395.600 29.560,395.420 29.200,395.200 29.200 C 394.980 29.200,394.800 28.880,394.800 28.488 C 394.800 28.097,394.440 27.517,394.000 27.200 C 393.560 26.883,393.200 26.393,393.200 26.112 C 393.200 25.830,393.020 25.600,392.800 25.600 C 392.580 25.600,392.400 25.322,392.400 24.983 C 392.400 24.643,391.950 23.880,391.400 23.287 C 390.850 22.693,390.400 21.980,390.400 21.701 C 390.400 21.038,378.962 9.600,378.299 9.600 C 378.020 9.600,377.307 9.150,376.713 8.600 C 376.120 8.050,375.447 7.600,375.217 7.600 C 374.988 7.600,374.800 7.420,374.800 7.200 C 374.800 6.980,374.480 6.800,374.088 6.800 C 373.697 6.800,373.117 6.440,372.800 6.000 C 372.483 5.560,371.903 5.200,371.512 5.200 C 371.120 5.200,370.800 5.020,370.800 4.800 C 370.800 4.580,370.440 4.400,370.000 4.400 C 369.560 4.400,369.200 4.220,369.200 4.000 C 369.200 3.780,368.840 3.600,368.400 3.600 C 367.960 3.600,367.600 3.420,367.600 3.200 C 367.600 2.980,367.240 2.800,366.800 2.800 C 366.360 2.800,366.000 2.620,366.000 2.400 C 366.000 2.180,365.460 2.000,364.800 2.000 C 364.140 2.000,363.600 1.820,363.600 1.600 C 363.600 1.380,363.075 1.200,362.433 1.200 C 361.792 1.200,361.192 0.975,361.100 0.700 C 360.941 0.224,43.859 -0.183,40.100 0.288 M269.800 44.706 C 270.207 45.005,270.009 99.363,269.600 99.697 C 269.391 99.868,258.243 109.187,243.600 121.430 C 232.116 131.033,230.329 132.462,230.097 132.230 C 229.988 132.121,229.877 121.540,229.850 108.716 L 229.800 85.400 199.300 85.298 L 168.800 85.195 168.800 131.798 C 168.800 158.259,168.952 178.400,169.151 178.400 C 169.786 178.400,177.502 175.800,201.200 167.600 C 205.050 166.268,212.160 163.817,217.000 162.154 C 221.840 160.490,226.790 158.779,228.000 158.350 C 229.638 157.771,231.692 156.323,236.036 152.686 C 239.246 149.999,245.096 145.104,249.036 141.809 C 252.976 138.513,256.290 135.719,256.400 135.600 C 256.576 135.408,261.752 131.111,267.869 126.079 C 269.263 124.932,270.032 124.529,270.226 124.842 C 270.907 125.944,269.968 185.775,269.263 186.198 C 268.899 186.417,267.700 186.897,266.600 187.265 C 265.500 187.634,263.070 188.503,261.200 189.197 C 259.330 189.891,255.640 191.235,253.000 192.185 C 246.729 194.440,244.799 195.230,244.805 195.543 C 244.810 195.824,245.662 199.185,247.607 206.600 C 248.300 209.240,249.017 212.030,249.202 212.800 C 249.386 213.570,249.899 215.550,250.342 217.200 C 251.613 221.930,253.634 229.665,254.002 231.200 C 254.186 231.970,254.696 233.950,255.136 235.600 C 255.575 237.250,256.567 241.030,257.340 244.000 C 258.113 246.970,259.496 252.280,260.413 255.800 C 261.329 259.320,262.250 262.920,262.458 263.800 C 263.010 266.134,263.487 267.988,264.000 269.800 C 264.249 270.680,264.609 272.030,264.800 272.800 C 264.991 273.570,265.351 274.920,265.600 275.800 C 265.849 276.680,266.221 278.075,266.427 278.900 C 266.632 279.725,266.968 281.075,267.173 281.900 C 267.379 282.725,267.751 284.120,268.000 285.000 C 268.249 285.880,268.629 287.320,268.845 288.200 C 269.621 291.369,269.950 292.651,270.800 295.800 C 271.275 297.560,271.812 299.630,271.993 300.400 C 272.174 301.170,273.352 305.760,274.611 310.600 C 275.870 315.440,277.045 320.030,277.223 320.800 C 277.401 321.570,277.751 322.920,278.000 323.800 C 278.249 324.680,278.621 326.075,278.827 326.900 C 279.032 327.725,279.368 329.075,279.573 329.900 C 279.779 330.725,280.151 332.120,280.400 333.000 C 281.006 335.138,281.511 337.140,281.812 338.600 C 281.949 339.260,282.213 340.160,282.400 340.600 C 282.587 341.040,282.851 341.940,282.988 342.600 C 283.124 343.260,283.400 344.430,283.600 345.200 C 283.800 345.970,284.076 347.140,284.212 347.800 C 284.349 348.460,284.613 349.360,284.800 349.800 C 284.987 350.240,285.251 351.140,285.388 351.800 C 285.689 353.260,286.194 355.262,286.800 357.400 C 287.286 359.115,287.732 360.842,288.350 363.400 C 288.563 364.280,289.125 366.440,289.600 368.200 C 290.573 371.805,290.895 373.086,291.764 376.800 C 292.098 378.230,292.565 380.030,292.802 380.800 C 293.039 381.570,293.391 382.920,293.585 383.800 C 293.780 384.680,294.327 386.840,294.801 388.600 C 296.000 393.048,296.423 394.792,296.673 396.304 C 296.792 397.021,297.049 397.706,297.244 397.827 C 298.464 398.581,297.496 399.234,295.331 399.120 C 292.999 398.997,291.374 397.603,290.043 394.584 C 289.845 394.135,289.395 393.527,289.042 393.235 C 288.689 392.942,288.400 392.469,288.400 392.184 C 288.400 391.900,288.249 391.607,288.065 391.533 C 287.881 391.460,286.232 389.150,284.401 386.400 C 282.570 383.650,280.958 381.310,280.820 381.200 C 280.683 381.090,279.551 379.470,278.306 377.600 C 275.777 373.801,265.790 359.128,261.230 352.510 C 259.596 350.139,255.805 344.600,252.806 340.200 C 249.807 335.800,246.541 331.030,245.550 329.600 C 238.476 319.394,237.736 318.169,237.097 315.600 C 236.402 312.807,235.232 308.350,234.261 304.800 C 233.931 303.590,233.286 301.205,232.830 299.500 C 232.373 297.795,231.626 295.005,231.169 293.300 C 230.712 291.595,229.824 288.220,229.195 285.800 C 228.009 281.234,225.489 271.752,223.987 266.200 C 223.510 264.440,222.970 262.370,222.787 261.600 C 222.603 260.830,222.274 259.570,222.056 258.800 C 221.837 258.030,221.094 255.240,220.403 252.600 C 219.713 249.960,218.800 246.495,218.374 244.900 C 217.948 243.305,217.228 240.605,216.772 238.900 C 216.317 237.195,215.765 235.170,215.546 234.400 C 215.326 233.630,214.993 232.370,214.805 231.600 C 214.617 230.830,214.104 228.850,213.664 227.200 C 213.225 225.550,212.303 222.040,211.617 219.400 C 209.986 213.125,208.751 208.667,208.550 208.329 C 208.346 207.987,207.903 208.124,198.000 211.586 C 193.490 213.163,188.810 214.787,187.600 215.195 C 186.390 215.603,182.790 216.863,179.600 217.995 C 176.410 219.127,172.675 220.418,171.300 220.864 L 168.800 221.675 168.800 256.349 L 168.800 291.024 165.467 296.612 C 163.635 299.685,159.558 306.520,156.410 311.800 C 153.261 317.080,150.329 322.030,149.895 322.800 C 149.461 323.570,148.767 324.678,148.353 325.262 C 147.939 325.846,147.600 326.408,147.600 326.510 C 147.600 326.613,144.810 331.336,141.400 337.006 C 137.990 342.677,135.200 347.397,135.200 347.496 C 135.200 347.595,134.861 348.154,134.447 348.738 C 133.720 349.764,132.790 351.305,130.492 355.294 C 129.891 356.336,129.265 357.191,129.100 357.194 C 128.935 357.197,128.800 286.820,128.800 200.800 L 128.800 44.400 199.100 44.406 C 237.765 44.409,269.580 44.544,269.800 44.706 " stroke="none" fill="#040404" fill-rule="evenodd"></path></g></svg>